<svg width="16" height="13" viewBox="0 0 16 13" fill="none" xmlns="http://www.w3.org/2000/svg">
<path d="M14.8571 0.625H1.14286C0.839753 0.625 0.549062 0.751428 0.334735 0.976472C0.120408 1.20152 0 1.50674 0 1.825V11.425C0 11.7433 0.120408 12.0485 0.334735 12.2735C0.549062 12.4986 0.839753 12.625 1.14286 12.625H14.8571C15.1602 12.625 15.4509 12.4986 15.6653 12.2735C15.8796 12.0485 16 11.7433 16 11.425V1.825C16 1.50674 15.8796 1.20152 15.6653 0.976472C15.4509 0.751428 15.1602 0.625 14.8571 0.625ZM13.6 1.825L8 5.893L2.4 1.825H13.6ZM1.14286 11.425V2.371L7.67429 7.117C7.76994 7.18668 7.88358 7.22401 8 7.22401C8.11642 7.22401 8.23006 7.18668 8.32571 7.117L14.8571 2.371V11.425H1.14286Z" fill="#0C66FF"/>
</svg>
