<svg width="24" height="26" viewBox="0 0 24 26" fill="none" xmlns="http://www.w3.org/2000/svg">
<path d="M23.1281 1.57278L18.2532 0.409013C17.7236 0.282938 17.1798 0.569031 16.9642 1.08303L14.7142 6.51395C14.5174 6.98916 14.6486 7.54679 15.0377 7.87168L17.8782 10.2768C16.1908 13.996 13.2424 17.0897 9.57217 18.8693L7.24722 15.9308C6.92847 15.5283 6.39411 15.3925 5.93474 15.5962L0.684849 17.9237C0.183297 18.1516 -0.0932599 18.7141 0.0286127 19.2621L1.15359 24.3051C1.27077 24.8288 1.72077 25.207 2.25044 25.207C14.2549 25.207 24 15.1452 24 2.70746C24 2.16436 23.6391 1.69401 23.1281 1.57278Z" fill="#0C66FF"/>
</svg>
