<svg width="60" height="60" viewBox="0 0 60 60" fill="none" xmlns="http://www.w3.org/2000/svg">
<g clip-path="url(#clip0)">
<path d="M60 46.4701C59.1268 46.8003 58.1628 46.7996 57.2901 46.468C56.4174 46.1364 55.6961 45.4969 55.2625 44.6701L46.6375 32.7426L45.3875 31.0751L35.38 44.6851C34.9725 45.4772 34.2904 46.0938 33.4613 46.4195C32.6322 46.7453 31.7128 46.7579 30.875 46.4551L43.77 29.1551L31.775 13.5276C32.6375 13.2167 33.5808 13.2126 34.4459 13.5159C35.3111 13.8192 36.0453 14.4113 36.525 15.1926L45.465 27.2676L54.455 15.2426C54.8657 14.4645 55.548 13.8645 56.3721 13.5566C57.1963 13.2487 58.1048 13.2544 58.925 13.5726L54.27 19.7501L47.965 27.9576C47.7899 28.1137 47.6498 28.3052 47.5539 28.5193C47.458 28.7334 47.4084 28.9654 47.4084 29.2001C47.4084 29.4347 47.458 29.6667 47.5539 29.8808C47.6498 30.0949 47.7899 30.2864 47.965 30.4426L59.975 46.4726L60 46.4701ZM0.00502999 28.9401L1.05503 23.7526C3.94003 13.4951 15.7 9.22756 23.79 15.5776C28.5275 19.3001 29.71 24.5701 29.4775 30.5101H2.79003C2.35753 41.1176 10.0125 47.5226 19.8 44.2501C21.3867 43.6789 22.8069 42.7232 23.9334 41.4683C25.06 40.2135 25.8576 38.6989 26.255 37.0601C26.7725 35.3951 27.625 35.1101 29.19 35.5901C28.9292 37.621 28.2113 39.5664 27.0902 41.2799C25.9691 42.9933 24.4741 44.4302 22.7175 45.4826C19.8161 47.0696 16.4871 47.6987 13.2066 47.2797C9.92608 46.8608 6.86203 45.4154 4.45253 43.1501C2.0701 40.4685 0.63022 37.0813 0.35253 33.5051C0.35253 32.9176 0.15253 32.3676 0.01753 31.8401C0.00536007 30.8743 -0.000473393 29.9084 2.99907e-05 28.9426L0.00502999 28.9401ZM2.82253 28.2251H26.9575C26.8075 20.5351 21.955 15.0801 15.4825 15.0301C8.27753 14.9301 3.12253 20.2651 2.80503 28.1901L2.82253 28.2251Z" fill="black"/>
</g>
<defs>
<clipPath id="clip0">
<rect width="60" height="60" fill="white"/>
</clipPath>
</defs>
</svg>
