<svg width="54" height="60" viewBox="0 0 54 60" fill="none" xmlns="http://www.w3.org/2000/svg">
<g clip-path="url(#clip0)">
<path fill-rule="evenodd" clip-rule="evenodd" d="M32.1838 6.86729L44.6599 13.9819C45.0201 13.6055 45.4334 13.2824 45.8871 13.0227C48.4745 11.5535 51.7748 12.4258 53.2778 14.9815C54.7653 17.5371 53.8821 20.7965 51.2945 22.2808C50.8442 22.537 50.3589 22.7278 49.8536 22.8475V37.0819C50.3534 37.2018 50.8334 37.3913 51.2791 37.6448C53.8821 39.1292 54.7653 42.3887 53.2624 44.9444C51.7748 47.4998 48.4591 48.3721 45.8715 46.9031C45.3703 46.6191 44.9187 46.257 44.5342 45.8308L32.134 52.9017C32.3156 53.4447 32.4079 54.0131 32.4072 54.585C32.4072 57.5231 29.9903 59.9258 26.9998 59.9258C24.0093 59.9258 21.5924 57.5383 21.5924 54.585C21.5924 54.06 21.6688 53.5529 21.8112 53.074L9.33843 45.9615C8.98219 46.3304 8.57466 46.6475 8.12808 46.9031C5.52511 48.3721 2.22478 47.4998 0.737248 44.9444C-0.750072 42.3887 0.133123 39.1292 2.72048 37.6448C3.16621 37.3913 3.64619 37.2017 4.146 37.0817V22.8475C3.64067 22.7278 3.1554 22.537 2.70508 22.2808C0.117513 20.8119 -0.765682 17.5371 0.721849 14.9815C2.20938 12.4258 5.5249 11.5535 8.11247 13.0227C8.56368 13.281 8.97499 13.602 9.33379 13.9758L21.8135 6.85937C21.6664 6.36623 21.5919 5.85473 21.5924 5.34062C21.5924 2.3875 24.0093 0 26.9998 0C29.9903 0 32.4072 2.38729 32.4072 5.34062C32.4072 5.87146 32.3291 6.38375 32.1838 6.86729ZM30.884 9.05937L43.3899 16.1906C43.1907 16.8781 43.1336 17.5982 43.2219 18.3079C43.3102 19.0177 43.5422 19.7026 43.9039 20.3221C44.6652 21.63 45.9053 22.4971 47.2817 22.835V37.0871C47.2114 37.104 47.1416 37.1225 47.0722 37.1421L30.7387 9.20208C30.788 9.15542 30.8365 9.10792 30.884 9.05958V9.05937ZM23.2643 9.20521L6.93101 37.1448C6.86038 37.1246 6.78935 37.1059 6.71796 37.0885V22.835C8.09432 22.4971 9.33443 21.63 10.0957 20.3221C10.4582 19.7015 10.6903 19.0151 10.7783 18.3039C10.8662 17.5927 10.8082 16.8713 10.6076 16.1827L23.1099 9.05354C23.1603 9.105 23.2118 9.15562 23.2643 9.205V9.20521ZM28.5108 10.4708L44.8403 38.4042C44.4662 38.7567 44.1456 39.1606 43.8883 39.6035C43.6317 40.0438 43.4397 40.5178 43.3184 41.0115H10.6817C10.5601 40.5178 10.3681 40.0438 10.1113 39.6035C9.85312 39.1637 9.53311 38.7622 9.16082 38.411L25.4935 10.4721C25.9832 10.6113 26.4903 10.6818 26.9998 10.6812C27.5244 10.6812 28.0313 10.6079 28.5108 10.4708ZM30.9988 50.9871L43.4234 43.9021C43.3862 43.7864 43.3529 43.6695 43.3236 43.5517H10.6747C10.6574 43.621 10.6387 43.6898 10.6186 43.7583L23.104 50.8781C23.6082 50.3603 24.2133 49.9486 24.8828 49.6679C25.5523 49.3871 26.2724 49.243 26.9998 49.2444C27.7526 49.2431 28.4973 49.3975 29.1861 49.6976C29.8748 49.9978 30.4923 50.437 30.9988 50.9871V50.9871Z" fill="#E535AB"/>
</g>
<defs>
<clipPath id="clip0">
<rect width="54" height="60" fill="white"/>
</clipPath>
</defs>
</svg>
