<svg width="60" height="60" viewBox="0 0 60 60" fill="none" xmlns="http://www.w3.org/2000/svg">
<path d="M11.0663 51.0019L6.85315 3.75H53.1469L48.9282 50.9944L29.9719 56.25L11.0663 51.0019Z" fill="#E44F26"/>
<path d="M30 52.2338L45.3187 47.9869L48.9225 7.61438H30V52.2338Z" fill="#F1662A"/>
<path d="M30 25.1381H22.3312L21.8025 19.2037H30V13.4081H15.4688L15.6075 14.9643L17.0306 30.9337H30V25.1381Z" fill="#EBEBEB"/>
<path d="M29.9999 40.1886L29.9737 40.1961L23.5199 38.4543L23.1074 33.8324H17.2893L18.1012 42.9299L29.9737 46.2261L29.9999 46.2186V40.1886Z" fill="#EBEBEB"/>
<path d="M29.9794 25.1381V30.9337H37.1157L36.4444 38.4506L29.9794 40.1943V46.2243L41.8613 42.9299L41.9476 41.9512L43.3088 26.6943L43.4513 25.1381H29.9794Z" fill="white"/>
<path d="M29.9794 13.4081V19.2037H43.9782L44.0944 17.9025L44.3588 14.9643L44.4976 13.4081H29.9794Z" fill="white"/>
</svg>
