<svg width="60" height="60" viewBox="0 0 60 60" fill="none" xmlns="http://www.w3.org/2000/svg">
<rect width="60" height="60" fill="#2C4056"/>
<path d="M0 0H60V60H0V0Z" fill="#F7DF1E"/>
<path d="M15.7761 50.1402L20.3676 47.3615C21.2535 48.932 22.0593 50.2609 23.9922 50.2609C25.8449 50.2609 27.0133 49.5362 27.0133 46.7172V27.5458H32.6516V46.7969C32.6516 52.6368 29.2283 55.2951 24.2338 55.2951C19.7233 55.2951 17.105 52.9591 15.7759 50.1398" fill="black"/>
<path d="M35.7143 49.5361L40.3052 46.8781C41.5139 48.8517 43.0847 50.3016 45.8634 50.3016C48.1999 50.3016 49.6896 49.1335 49.6896 47.5224C49.6896 45.5892 48.1591 44.9044 45.5815 43.7771L44.1722 43.1724C40.1041 41.441 37.4058 39.266 37.4058 34.6746C37.4058 30.4456 40.6277 27.2234 45.6623 27.2234C49.2469 27.2234 51.8245 28.4721 53.677 31.7344L49.2867 34.5539C48.3199 32.8221 47.2732 32.1375 45.6621 32.1375C44.0107 32.1375 42.9635 33.1847 42.9635 34.5539C42.9635 36.2454 44.0107 36.9305 46.4271 37.9777L47.8366 38.5817C52.6296 40.636 55.328 42.7301 55.328 47.442C55.328 52.5171 51.3408 55.2959 45.9841 55.2959C40.7484 55.2959 37.3652 52.7989 35.7141 49.5364" fill="black"/>
</svg>
