<svg width="210" height="60" viewBox="0 0 210 60" fill="none" xmlns="http://www.w3.org/2000/svg">
<g clip-path="url(#clip0)">
<path fill-rule="evenodd" clip-rule="evenodd" d="M195.527 24.8479C195.338 24.8857 195.149 25.3028 195.149 25.5301C195.111 27.0473 195.073 31.0673 195.073 33.7977C195.073 33.8738 195.186 34.0254 195.3 34.0254C195.868 34.0632 197.23 34.101 198.404 34.101C200.031 34.101 200.977 33.8738 201.508 33.6465C202.87 32.9635 203.513 31.4844 203.513 29.8533C203.513 26.1753 200.94 24.7718 197.117 24.7718C196.852 24.734 196.095 24.734 195.527 24.8479ZM205.293 41.7999C205.293 38.0454 202.529 35.9594 197.533 35.9594C197.306 35.9594 195.716 35.9216 195.338 35.9972C195.224 36.0354 195.073 36.1114 195.073 36.2253C195.073 38.9175 195.035 43.2033 195.149 44.8718C195.224 45.5922 195.754 46.6164 196.398 46.9196C197.079 47.299 198.631 47.3746 199.691 47.3746C202.681 47.3746 205.293 45.7061 205.293 41.7999ZM187.806 22.7623C188.184 22.7623 189.32 22.8757 192.234 22.8757C194.997 22.8757 197.192 22.8001 199.88 22.8001C203.173 22.8001 207.715 23.9754 207.715 28.9057C207.715 31.3328 206.011 33.2672 203.778 34.2153C203.665 34.2531 203.665 34.3287 203.778 34.3665C206.957 35.1633 209.759 37.1351 209.759 40.8514C209.759 44.4925 207.488 46.8058 204.195 48.247C202.189 49.1191 199.691 49.4224 197.155 49.4224C195.224 49.4224 190.039 49.1951 187.163 49.2711C186.86 49.1569 187.427 47.7917 187.692 47.5644C188.374 47.5262 188.903 47.4884 189.623 47.2607C190.645 46.9957 190.758 46.692 190.909 45.1373C190.985 43.8099 190.985 39.1069 190.985 35.7699C190.985 31.1812 191.023 28.0714 190.985 26.5546C190.947 25.3792 190.531 24.9995 189.699 24.7718C189.055 24.6584 187.995 24.5064 187.124 24.3929C186.935 24.2031 187.578 22.9135 187.806 22.7623ZM165.966 46.3509C166.875 47.0709 168.654 47.3742 170.244 47.3742C172.287 47.3742 174.331 46.9957 176.3 45.2125C178.306 43.3928 179.706 40.5864 179.706 36.1114C179.706 31.8255 178.078 28.3365 174.748 26.2891C172.855 25.1129 170.433 24.6206 167.632 24.6206C166.799 24.6206 166.004 24.6584 165.512 24.8857C165.398 24.9617 165.134 25.3028 165.134 25.4923C165.058 26.2509 165.058 32.091 165.058 35.5044C165.058 39.0313 165.058 43.9616 165.134 44.5303C165.134 45.0995 165.398 45.9716 165.966 46.3509H165.966ZM157.374 22.7618C158.094 22.7618 160.856 22.8757 162.181 22.8757C164.566 22.8757 166.269 22.7623 170.773 22.7623C174.558 22.7623 177.738 23.7859 180.009 25.7199C182.771 28.1092 184.21 31.4088 184.21 35.4284C184.21 41.1551 181.598 44.4547 178.986 46.3509C176.375 48.2849 172.969 49.4224 168.124 49.4224C165.55 49.4224 161.122 49.3468 157.45 49.3085H157.412C157.223 48.9675 157.715 47.6401 158.018 47.6022C159.002 47.4884 159.267 47.4502 159.759 47.2612C160.554 46.9575 160.705 46.5403 160.819 45.1373C160.932 42.5203 160.894 39.3728 160.894 35.8077C160.894 33.2672 160.932 28.2987 160.856 26.7058C160.743 25.3788 160.175 25.0373 159.04 24.8096C158.472 24.6962 157.715 24.5442 156.656 24.4307C156.504 24.1649 157.185 22.9895 157.374 22.7623V22.7618Z" fill="#8E714E"/>
<path fill-rule="evenodd" clip-rule="evenodd" d="M111.576 47.8295C110.63 47.7156 109.949 47.5644 109.116 47.1851C109.002 47.1091 108.813 46.7302 108.813 46.5781C108.737 45.2507 108.737 41.4584 108.737 38.9178C108.737 36.8696 108.397 35.0873 107.526 33.8359C106.504 32.3943 105.028 31.5604 103.135 31.5604C101.47 31.5604 99.2369 32.698 97.3822 34.2908C97.3444 34.3286 97.0417 34.5945 97.0795 34.177C97.0795 33.7599 97.1554 32.9256 97.1931 32.3565C97.2312 31.8255 96.9281 31.5604 96.9281 31.5604C95.7169 32.167 92.3106 32.9634 91.0613 33.0769C90.1532 33.2671 89.9259 34.1392 90.8726 34.4425H90.9103C91.9316 34.7458 92.6133 35.0873 93.1428 35.4288C93.5214 35.7321 93.4836 36.1492 93.4836 36.4907C93.5214 39.3345 93.5214 43.696 93.4082 46.0854C93.3704 47.0334 93.1055 47.3745 92.4238 47.5262L92.4997 47.4884C91.9697 47.6022 91.5534 47.7156 90.9099 47.7917C90.6827 48.0193 90.6827 49.2329 90.9099 49.4984C91.3262 49.4984 93.5214 49.3845 95.3388 49.3845C97.8366 49.3845 99.1237 49.4984 99.7668 49.4984C100.032 49.1951 100.108 48.0571 99.9563 47.7917C99.2369 47.7538 98.707 47.6782 98.2152 47.5262C97.5339 47.3741 97.3444 47.0334 97.3063 46.237C97.2312 44.2266 97.2312 39.9793 97.2312 37.0973C97.2312 36.3008 97.458 35.9215 97.6849 35.6939C98.5556 34.9356 99.9563 34.4047 101.205 34.4047C102.416 34.4047 103.211 34.784 103.817 35.2771C104.649 35.9593 104.914 36.9456 105.028 37.666C105.217 39.2967 105.142 42.5203 105.142 45.3267C105.142 46.8436 105.028 47.2229 104.461 47.4123C104.195 47.5262 103.514 47.6782 102.719 47.7534C102.454 48.0193 102.53 49.1951 102.719 49.4606C103.817 49.4606 105.104 49.3467 106.996 49.3467C109.343 49.3467 110.857 49.4606 111.463 49.4606C111.651 49.2329 111.727 48.1332 111.576 47.8295ZM122.06 33.3432C120.055 33.3432 118.805 34.8978 118.805 37.3245C118.805 39.7899 119.903 42.6341 123.007 42.6341C123.537 42.6341 124.521 42.4065 124.975 41.8755C125.694 41.1933 126.186 39.8277 126.186 38.3865C126.186 35.2389 124.634 33.3428 122.06 33.3428V33.3432ZM121.795 50.1049C121.039 50.1049 120.508 50.3326 120.168 50.5225C118.578 51.5458 117.859 52.5321 117.859 53.7082C117.859 54.8075 118.276 55.6796 119.184 56.4382C120.282 57.3863 121.795 57.8417 123.726 57.8417C127.586 57.8417 129.29 55.7556 129.29 53.7082C129.29 52.2666 128.57 51.3185 127.095 50.788C126.035 50.3326 124.105 50.1049 121.795 50.1049ZM122.06 59.9655C119.752 59.9655 118.086 59.4723 116.648 58.3726C115.247 57.3107 114.642 55.7178 114.642 54.6181C114.642 54.3148 114.718 53.4801 115.399 52.7219C115.815 52.2666 116.724 51.3945 118.881 49.9155C118.957 49.8777 118.995 49.8399 118.995 49.7634C118.995 49.6878 118.919 49.6118 118.843 49.5744C117.064 48.8918 116.534 47.7917 116.383 47.1851V47.1091C116.345 46.8814 116.269 46.6541 116.61 46.4265C116.875 46.237 117.254 46.0093 117.67 45.7443C118.313 45.3645 118.995 44.9474 119.411 44.6059C119.487 44.5303 119.487 44.4547 119.487 44.3786C119.487 44.3026 119.411 44.2266 119.335 44.1892C116.686 43.3167 115.361 41.3445 115.361 38.3865C115.361 36.4525 116.232 34.708 117.783 33.6082C118.843 32.774 121.493 31.7499 123.234 31.7499H123.348C125.126 31.7877 126.11 32.167 127.511 32.6602C128.268 32.9256 128.987 33.0391 129.972 33.0391C131.447 33.0391 132.091 32.5841 132.62 32.0536C132.658 32.1292 132.734 32.3191 132.772 32.8118C132.81 33.3049 132.658 34.0254 132.28 34.5563C131.977 34.9734 131.296 35.2771 130.615 35.2771H130.425C129.744 35.2011 129.441 35.1251 129.441 35.1251L129.29 35.2011C129.252 35.2771 129.29 35.3528 129.328 35.4666L129.366 35.5426C129.441 35.8837 129.593 36.9074 129.593 37.1733C129.593 40.283 128.344 41.6478 127.019 42.6719C125.732 43.62 124.256 44.2266 122.59 44.3786C122.553 44.3786 122.402 44.3786 122.06 44.4165C121.871 44.4165 121.606 44.4547 121.568 44.4547H121.531C121.228 44.5303 120.471 44.9096 120.471 45.554C120.471 46.1228 120.812 46.8058 122.439 46.9196C122.779 46.9574 123.12 46.9574 123.499 46.9956C125.656 47.1469 128.344 47.3367 129.593 47.7538C131.334 48.3982 132.431 49.9533 132.431 51.8117C132.431 54.6185 130.426 57.2351 127.095 58.8654C125.467 59.5862 123.839 59.9655 122.06 59.9655ZM143.635 33.5326C142.84 33.5326 142.121 33.7217 141.591 34.101C140.115 35.0112 139.358 36.8318 139.358 39.4862C139.358 44.4547 141.856 47.9437 145.414 47.9437C146.474 47.9437 147.306 47.64 148.025 47.0334C149.123 46.1228 149.691 44.3026 149.691 41.7617C149.691 36.8318 147.231 33.5322 143.635 33.5322L143.635 33.5326ZM144.316 49.7639C137.882 49.7639 135.573 45.0234 135.573 40.5863C135.573 37.4766 136.822 35.0873 139.32 33.3806C141.099 32.2808 143.219 31.6743 145.111 31.6743C150.031 31.6743 153.476 35.2011 153.476 40.283C153.476 43.7339 152.113 46.4643 149.502 48.1332C148.253 48.9674 146.095 49.7639 144.316 49.7639H144.316ZM76.8678 33.5322C76.0729 33.5322 75.3539 33.7217 74.8236 34.101C73.3478 35.0112 72.5907 36.8318 72.5907 39.4862C72.5907 44.4547 75.0885 47.9437 78.6466 47.9437C79.7065 47.9437 80.5391 47.64 81.2585 47.0334C82.3557 46.1228 82.9237 44.3026 82.9237 41.7617C82.9237 36.8318 80.5014 33.5322 76.8678 33.5322ZM77.5491 49.7639C71.1145 49.7639 68.8058 45.0234 68.8058 40.5863C68.8058 37.4766 70.0547 35.0873 72.5525 33.3806C74.3318 32.2808 76.4515 31.6743 78.3439 31.6743C83.2646 31.6743 86.7087 35.2011 86.7087 40.283C86.7087 43.7339 85.3461 46.4643 82.7343 48.1332C81.5231 48.9674 79.3656 49.7639 77.5491 49.7639ZM34.2866 49.3845C34.2107 49.2711 34.1348 48.9296 34.173 48.5125C34.173 48.2088 34.2489 48.0193 34.2866 47.9437C35.0815 47.8295 35.4978 47.7156 35.9518 47.6022C36.709 47.4123 37.0117 46.9956 37.0494 46.0476C37.1634 43.7721 37.1634 39.4484 37.1253 36.4525V36.3765C37.1253 36.0354 37.1253 35.6178 36.709 35.3145C36.1032 34.9356 35.3842 34.5945 34.4379 34.3282C34.0975 34.2152 33.8703 34.0254 33.908 33.7981C33.908 33.5704 34.1352 33.3049 34.6274 33.2289C35.8764 33.1151 39.1309 32.3191 40.418 31.7499C40.4939 31.8255 40.6075 32.0536 40.6075 32.3569L40.5698 32.7736C40.5316 33.1911 40.4939 33.6843 40.4939 34.177C40.4939 34.3286 40.6457 34.4425 40.7966 34.4425C40.8725 34.4425 40.9483 34.4047 41.0238 34.3665C43.4462 32.4703 45.6414 31.7877 46.7767 31.7877C48.6318 31.7877 50.0702 32.6602 51.1678 34.4803C51.2433 34.5945 51.3192 34.6323 51.4328 34.6323C51.5082 34.6323 51.6214 34.5945 51.6596 34.5185C53.8929 32.8118 56.1262 31.7877 57.6019 31.7877C61.1219 31.7877 63.2038 34.4047 63.2038 38.8418C63.2038 40.0932 63.2038 41.7238 63.1661 43.2033C63.1661 44.5303 63.1284 45.7438 63.1284 46.6163C63.1284 46.8054 63.3929 47.4123 63.8092 47.5262C64.3392 47.7917 65.0586 47.9055 66.0048 48.0571H66.0425C66.1184 48.3226 65.9671 49.3085 65.8157 49.4984C65.5885 49.4984 65.2477 49.4984 64.8695 49.4606C63.9114 49.4105 62.9521 49.3851 61.9926 49.3845C59.6461 49.3845 58.435 49.4223 57.2611 49.4984C57.186 49.1951 57.1479 48.2848 57.2611 48.0571C57.9428 47.9437 58.2832 47.8295 58.6999 47.716C59.4571 47.4884 59.6461 47.1469 59.6843 46.161C59.6843 45.4406 59.8352 39.2967 59.608 37.8177C59.3812 36.3008 58.2455 34.5185 55.7472 34.5185C54.801 34.5185 53.3252 34.8978 51.8868 35.9971C51.8113 36.0732 51.7351 36.2626 51.7351 36.3765V36.4147C51.8868 37.2107 51.8868 38.1214 51.8868 39.5244V41.9893C51.8868 43.696 51.8487 45.2889 51.8868 46.5021C51.8868 47.3367 52.379 47.5262 52.7953 47.6782C53.0225 47.7156 53.1735 47.7538 53.363 47.7917C53.7034 47.8677 54.0442 47.9437 54.5742 48.0571C54.65 48.2092 54.65 48.7019 54.5364 49.1191C54.4983 49.3467 54.4224 49.4602 54.3847 49.4984C53.098 49.4606 51.7732 49.4223 49.843 49.4223C49.2753 49.4223 48.291 49.4606 47.4584 49.4606C46.7767 49.4606 46.1335 49.4984 45.7554 49.4984C45.7172 49.4223 45.6414 49.1573 45.6414 48.7397C45.6414 48.3986 45.7172 48.1332 45.7931 48.0571C45.9822 48.0193 46.1335 47.9815 46.323 47.9815C46.7767 47.9055 47.1557 47.8295 47.5338 47.7538C48.1778 47.5644 48.4046 47.2229 48.4423 46.3886C48.5559 44.4925 48.6695 39.0695 48.4046 37.7039C47.9505 35.5044 46.7016 34.4047 44.6951 34.4047C43.5221 34.4047 42.0455 34.9734 40.8347 35.8841C40.6452 36.0354 40.4939 36.4143 40.4939 36.7558V38.9934C40.4939 41.7239 40.4939 45.1373 40.5316 46.6163C40.5698 47.0708 40.7207 47.6022 41.5915 47.7917C41.781 47.8295 42.0837 47.9055 42.4622 47.9437L43.1431 48.0571C43.2194 48.2848 43.1812 49.1951 43.0299 49.4984C42.6513 49.4984 42.1973 49.4606 41.6669 49.4606C40.8725 49.4223 39.8504 49.3845 38.715 49.3845C37.3902 49.3845 36.444 49.4223 35.6869 49.4606C35.1569 49.3845 34.7406 49.3845 34.2866 49.3845Z" fill="#442D22"/>
<path fill-rule="evenodd" clip-rule="evenodd" d="M14.3772 58.4865L12.8255 57.9551C12.8255 57.9551 13.015 50.0293 10.1759 49.4606C8.28388 47.2607 10.4794 -43.8324 17.2921 49.1569C17.2921 49.1569 14.9452 50.3322 14.5289 52.3426C14.0745 54.3148 14.3772 58.4865 14.3772 58.4865Z" fill="white"/>
<path fill-rule="evenodd" clip-rule="evenodd" d="M14.3772 58.4865L12.8255 57.9551C12.8255 57.9551 13.015 50.0293 10.1759 49.4606C8.28388 47.2607 10.4794 -43.8324 17.2921 49.1569C17.2921 49.1569 14.9452 50.3322 14.5289 52.3426C14.0745 54.3148 14.3772 58.4865 14.3772 58.4865Z" fill="#A6A385"/>
<path fill-rule="evenodd" clip-rule="evenodd" d="M15.2102 50.8259C15.2102 50.8259 28.7987 41.8756 25.6187 23.2546C22.5532 9.71642 15.3238 5.27929 14.5289 3.57258C13.6586 2.35902 12.8256 0.235596 12.8256 0.235596L13.3936 37.8934C13.3936 37.9316 12.2202 49.4224 15.2106 50.8263" fill="white"/>
<path fill-rule="evenodd" clip-rule="evenodd" d="M15.2102 50.8259C15.2102 50.8259 28.7987 41.8756 25.6187 23.2546C22.5532 9.71642 15.3238 5.27929 14.5289 3.57258C13.6586 2.35902 12.8256 0.235596 12.8256 0.235596L13.3936 37.8934C13.3936 37.9316 12.2202 49.4224 15.2106 50.8263" fill="#499D4A"/>
<path fill-rule="evenodd" clip-rule="evenodd" d="M12.0311 51.3186C12.0311 51.3186 -0.724728 42.596 0.0324205 27.2372C0.751424 11.878 9.75969 4.33117 11.5008 2.96596C12.6365 1.7524 12.6743 1.29706 12.7501 0.0834961C13.545 1.79021 13.3937 25.6065 13.5069 28.4125C13.8473 39.2208 12.9015 49.2712 12.0311 51.3186Z" fill="white"/>
<path fill-rule="evenodd" clip-rule="evenodd" d="M12.0311 51.3186C12.0311 51.3186 -0.724728 42.596 0.0324205 27.2372C0.751424 11.878 9.75969 4.33117 11.5008 2.96596C12.6365 1.7524 12.6743 1.29706 12.7501 0.0834961C13.545 1.79021 13.3937 25.6065 13.5069 28.4125C13.8473 39.2208 12.9015 49.2712 12.0311 51.3186Z" fill="#58AA50"/>
</g>
<defs>
<clipPath id="clip0">
<rect width="210" height="60" fill="white"/>
</clipPath>
</defs>
</svg>
