<svg width="60" height="60" viewBox="0 0 60 60" fill="none" xmlns="http://www.w3.org/2000/svg">
<g clip-path="url(#clip0)">
<path d="M44.5294 56.2585C44.3063 56.3766 44.325 56.4141 44.5387 56.3054C44.6046 56.2785 44.665 56.2397 44.7169 56.191C44.7169 56.1516 44.7169 56.1516 44.5294 56.2585ZM44.9794 56.0148C44.8725 56.1029 44.8725 56.1029 45 56.0448C45.0471 56.0227 45.0902 55.9929 45.1275 55.9566C45.1275 55.906 45.0975 55.9173 44.9794 56.0148ZM45.2719 55.8385C45.165 55.9266 45.165 55.9266 45.2925 55.8685C45.3398 55.846 45.3829 55.8155 45.42 55.7785C45.42 55.7316 45.39 55.741 45.2719 55.8385ZM45.5681 55.6641C45.4613 55.7523 45.4613 55.7523 45.585 55.6923C45.6544 55.6548 45.7125 55.6154 45.7125 55.6041C45.7125 55.5573 45.6825 55.5666 45.5681 55.6641ZM45.9675 55.3998C45.7631 55.5366 45.6919 55.6248 45.8794 55.5273C46.005 55.4504 46.2188 55.2816 46.1812 55.2816C46.1006 55.3116 46.0331 55.3623 45.9656 55.3998H45.9675ZM28.0369 0.0197627C27.9 0.0291377 27.4894 0.0666377 27.1294 0.0966377C18.6019 0.869138 10.6238 5.45914 5.56687 12.5298C2.77231 16.4077 0.955797 20.9033 0.271875 25.6341C0.03 27.2841 0 27.7716 0 30.0085C0 32.2435 0.03 32.7235 0.271875 34.3735C1.905 45.6441 9.9225 55.1054 20.79 58.6116C22.7456 59.236 24.795 59.6673 27.1294 59.9316C28.0369 60.0291 31.9613 60.0291 32.8688 59.9316C36.9038 59.4816 40.3106 58.486 43.6819 56.7666C44.1994 56.5041 44.2969 56.4348 44.2275 56.3766C42.5829 54.2027 40.9523 52.0183 39.3356 49.8235L34.5413 43.3491L28.5356 34.4523C26.538 31.4734 24.5198 28.5083 22.4812 25.5573C22.4606 25.5573 22.4344 29.5116 22.4231 34.3341C22.4025 42.781 22.4025 43.1241 22.2956 43.3191C22.1931 43.5547 22.0095 43.7457 21.7781 43.8573C21.5925 43.9454 21.4256 43.9641 20.5388 43.9641H19.5244L19.26 43.7991C19.0944 43.6929 18.9599 43.5448 18.87 43.3698L18.7425 43.1054L18.7519 31.3473L18.7725 19.5891L18.9581 19.3548C19.0767 19.2107 19.2226 19.0915 19.3875 19.0041C19.6331 18.886 19.7306 18.8673 20.745 18.8673C21.9356 18.8673 22.1325 18.9141 22.4456 19.2573C24.8785 22.8758 27.2904 26.5083 29.6812 30.1548C33.5794 36.0648 38.9006 44.1291 41.5163 48.0854L46.2731 55.2835L46.5075 55.1279C48.7936 53.6087 50.8652 51.7893 52.6669 49.7185C56.446 45.393 58.8983 40.0699 59.73 34.3866C59.9719 32.7366 60.0019 32.2473 60.0019 30.0123C60.0019 27.7754 59.9719 27.2973 59.73 25.6473C58.0969 14.3766 50.0794 4.91539 39.2119 1.40726C37.1808 0.76399 35.0904 0.326171 32.9719 0.100388C32.4037 0.0422628 28.5263 -0.0271122 28.0388 0.0235128L28.0369 0.0197627ZM40.3125 18.1641C40.452 18.2326 40.5764 18.3283 40.6785 18.4455C40.7805 18.5627 40.8582 18.6991 40.9069 18.8466C40.9575 19.0041 40.9669 22.2648 40.9575 29.6091L40.9369 40.1541L39.0825 37.3041L37.2169 34.4523V26.7966C37.2169 21.8335 37.2375 19.051 37.2638 18.9141C37.3555 18.6003 37.5661 18.3346 37.8506 18.1735C38.0831 18.0554 38.1731 18.046 39.1012 18.046C39.9694 18.046 40.1156 18.0554 40.3106 18.1641H40.3125Z" fill="black"/>
</g>
<defs>
<clipPath id="clip0">
<rect width="60" height="60" fill="white"/>
</clipPath>
</defs>
</svg>
