<svg width="60" height="60" viewBox="0 0 60 60" fill="none" xmlns="http://www.w3.org/2000/svg">
<path d="M29.9999 56.2501C29.2917 56.2504 28.5959 56.0641 27.9824 55.7101L21.5624 51.9095C20.6043 51.3732 21.0712 51.1839 21.3881 51.0732C22.4071 50.7584 23.3828 50.3175 24.2924 49.7607C24.3686 49.7255 24.4525 49.7103 24.5361 49.7165C24.6198 49.7228 24.7005 49.7503 24.7706 49.7964L29.7037 52.727C29.7955 52.7756 29.8979 52.801 30.0018 52.801C30.1057 52.801 30.2081 52.7756 30.2999 52.727L49.5374 41.6232C49.6275 41.5693 49.7019 41.4929 49.7535 41.4015C49.8051 41.3102 49.8321 41.2069 49.8318 41.102V18.8907C49.8319 18.7841 49.8045 18.6793 49.7523 18.5864C49.7001 18.4934 49.6248 18.4155 49.5337 18.3601L30.2962 7.26575C30.2055 7.21466 30.1031 7.18782 29.999 7.18782C29.8949 7.18782 29.7925 7.21466 29.7018 7.26575L10.4756 18.3639C10.3839 18.4181 10.3077 18.4951 10.2545 18.5874C10.2013 18.6797 10.1728 18.7842 10.1718 18.8907V41.0926C10.1721 41.1973 10.2002 41.3001 10.2532 41.3904C10.3063 41.4806 10.3824 41.5552 10.4737 41.6064L15.7499 44.6514C18.6093 46.0801 20.3606 44.3964 20.3606 42.7051V20.7845C20.3606 20.6353 20.4198 20.4922 20.5253 20.3868C20.6308 20.2813 20.7739 20.222 20.9231 20.222H23.3606C23.5097 20.222 23.6528 20.2813 23.7583 20.3868C23.8638 20.4922 23.9231 20.6353 23.9231 20.7845V42.707C23.9231 46.5226 21.8456 48.707 18.2268 48.707C16.6656 48.7342 15.129 48.3167 13.7962 47.5033L8.73931 44.6026C8.12542 44.2451 7.61603 43.7328 7.26202 43.1169C6.908 42.501 6.72173 41.803 6.72182 41.0926V18.8907C6.71999 18.1792 6.90547 17.4798 7.25961 16.8627C7.61375 16.2456 8.12408 15.7325 8.73931 15.3751L27.9787 4.26763C28.5984 3.92856 29.2935 3.75085 29.9999 3.75085C30.7064 3.75085 31.4014 3.92856 32.0212 4.26763L51.2587 15.3751C51.8725 15.7319 52.382 16.2435 52.7364 16.8587C53.0907 17.474 53.2775 18.1714 53.2781 18.8814V41.0926C53.277 41.803 53.0901 42.5008 52.7358 43.1165C52.3815 43.7323 51.8723 44.2446 51.2587 44.6026L32.0212 55.7101C31.4066 56.0647 30.7094 56.251 29.9999 56.2501Z" fill="#83CD29"/>
<path d="M26.3512 33.662C26.3512 33.5128 26.4105 33.3697 26.5159 33.2642C26.6214 33.1587 26.7645 33.0995 26.9137 33.0995H29.4018C29.5348 33.0999 29.6633 33.1474 29.7645 33.2336C29.8658 33.3197 29.9332 33.4389 29.9549 33.5701C30.3299 36.1032 31.4549 37.3801 36.5418 37.3801C40.5937 37.3801 42.3206 36.4632 42.3206 34.3126C42.3206 33.0732 41.8312 32.1526 35.5331 31.5357C30.2681 31.0145 27.0131 29.8482 27.0131 25.6407C27.0131 21.7595 30.2849 19.4438 35.7693 19.4438C41.9324 19.4438 44.9831 21.5832 45.3693 26.1732C45.3752 26.2499 45.3654 26.3269 45.3403 26.3995C45.3153 26.4722 45.2757 26.539 45.2238 26.5957C45.172 26.6525 45.1091 26.698 45.039 26.7295C44.9689 26.761 44.893 26.7778 44.8162 26.7788H42.3112C42.1855 26.7771 42.0641 26.7333 41.9662 26.6545C41.8683 26.5756 41.7997 26.4663 41.7712 26.3438C41.1731 23.6795 39.7087 22.8282 35.7712 22.8282C31.3462 22.8282 30.8324 24.3695 30.8324 25.5245C30.8324 26.9232 31.4399 27.332 37.4137 28.1213C43.3256 28.9032 46.1343 30.0095 46.1343 34.1645C46.1343 38.357 42.6393 40.757 36.5437 40.757C28.1156 40.7682 26.3512 36.9038 26.3512 33.662Z" fill="#83CD29"/>
</svg>
