<svg width="58" height="60" viewBox="0 0 58 60" fill="none" xmlns="http://www.w3.org/2000/svg">
<path d="M57.7752 35.9286C57.4274 34.872 56.5164 34.1361 55.3383 33.9595C54.7827 33.8763 54.1465 33.9117 53.3937 34.0674C52.0814 34.339 51.1079 34.4424 50.3974 34.4624C53.0792 29.9204 55.2599 24.7408 56.5153 19.8652C58.5452 11.9813 57.4605 8.3897 56.1929 6.76516C52.8381 2.46516 47.9437 0.155157 42.039 0.084475C38.8891 0.0458386 36.1239 0.669702 34.6814 1.11834C33.3384 0.880611 31.8943 0.747884 30.379 0.723339C27.5386 0.677884 25.029 1.29902 22.8845 2.57561C21.6974 2.17288 19.792 1.60516 17.5916 1.24288C12.4164 0.390611 8.24543 1.0547 5.19454 3.21675C1.50021 5.83447 -0.212374 10.3827 0.10436 16.7349C0.204954 18.7517 1.32961 24.8881 3.10042 30.7077C4.11814 34.0527 5.20338 36.8304 6.32599 38.9645C7.91805 41.9906 9.62157 43.7727 11.534 44.4127C12.6059 44.7708 14.5534 45.0217 16.6017 43.3104C16.8614 43.6258 17.2078 43.9392 17.6675 44.2304C18.2513 44.5997 18.9652 44.9015 19.6782 45.0804C22.2477 45.7247 24.6544 45.5636 26.7078 44.6604C26.7205 45.0267 26.7302 45.3767 26.7384 45.679C26.752 46.1692 26.7656 46.6499 26.7835 47.0995C26.9051 50.139 27.1113 52.5024 27.7221 54.1561C27.7556 54.247 27.8007 54.3856 27.8483 54.5327C28.153 55.4686 28.6626 57.0354 29.959 58.2624C31.3013 59.5336 32.9251 59.9233 34.4123 59.9233C35.1581 59.9233 35.8697 59.8252 36.4939 59.6911C38.7188 59.2127 41.2456 58.484 43.0735 55.8731C44.8017 53.4049 45.6418 49.6874 45.7939 43.8299C45.8136 43.6642 45.8317 43.5061 45.8491 43.3554L45.8854 43.0458L46.2925 43.0817L46.3974 43.0888C48.6635 43.1924 51.4344 42.7104 53.1361 41.9174C54.4807 41.2915 58.7897 39.0095 57.7752 35.9286Z" fill="black"/>
<path d="M53.9005 36.5278C47.1626 37.9221 46.6992 35.6337 46.6992 35.6337C53.8133 25.0444 56.7874 11.6028 54.2211 8.31303C47.2194 -0.660837 35.0995 3.58325 34.8972 3.69325L34.8321 3.70507C33.5008 3.4278 32.0112 3.2628 30.3367 3.2353C27.288 3.1853 24.9753 4.03712 23.2203 5.37212C23.2203 5.37212 1.59948 -3.56288 2.6052 16.6094C2.81907 20.9008 8.73688 49.0805 15.7952 40.5689C18.3751 37.4564 20.8679 34.8248 20.8679 34.8248C22.1059 35.6498 23.5881 36.0708 25.1418 35.9196L25.2626 35.8169C25.225 36.2033 25.2422 36.5812 25.3108 37.0287C23.4924 39.0667 24.0269 39.4244 20.3919 40.1751C16.7137 40.9355 18.8744 42.2892 20.2852 42.6433C21.9955 43.0721 25.9522 43.6798 28.6257 39.9255L28.5192 40.3539C29.2315 40.9264 29.7318 44.0773 29.6479 46.9339C29.5641 49.7903 29.5081 51.7514 30.0693 53.2833C30.631 54.8151 31.1904 58.2617 35.969 57.2346C39.9617 56.3762 42.0309 54.1519 42.3189 50.4414C42.523 47.8037 42.9854 48.1937 43.0144 45.8353L43.3853 44.7189C43.8128 41.1433 43.4533 39.9896 45.9131 40.5262L46.5112 40.5789C48.3214 40.6614 50.6913 40.2867 52.0821 39.6383C55.0768 38.2442 56.8531 35.9162 53.9001 36.5278H53.9005Z" fill="#336791"/>
<path d="M24.486 18.5283C23.8788 18.4436 23.3289 18.522 23.0507 18.7333C22.8944 18.8522 22.8459 18.9899 22.8328 19.0847C22.7979 19.3358 22.9732 19.6136 23.0811 19.7567C23.386 20.1622 23.8315 20.4408 24.2723 20.5022C24.3362 20.5113 24.3999 20.5154 24.4631 20.5154C25.1983 20.5154 25.8669 19.9411 25.9258 19.5172C25.9994 18.9863 25.2312 18.6324 24.486 18.5286" fill="white"/>
<path d="M44.6011 18.5452C44.5431 18.1291 43.8049 18.0104 43.1044 18.1082C42.4048 18.2059 41.7265 18.5227 41.7831 18.9397C41.8284 19.2641 42.4123 19.8177 43.1033 19.8177C43.1617 19.8177 43.2206 19.8138 43.28 19.8054C43.7413 19.7413 44.0798 19.4475 44.2406 19.2782C44.4853 19.02 44.6271 18.7322 44.6011 18.5452Z" fill="white"/>
<path d="M56.1426 36.3693C55.8857 35.59 55.0588 35.3393 53.6849 35.6238C49.6056 36.4684 48.1447 35.8834 47.6651 35.5291C50.8359 30.6836 53.4443 24.8263 54.8514 19.3616C55.518 16.7729 55.8862 14.3688 55.9163 12.4093C55.9496 10.2586 55.5844 8.67815 54.8313 7.7127C51.7949 3.82065 47.3384 1.73292 41.944 1.67565C38.2354 1.63383 35.102 2.58588 34.4946 2.85361C33.2154 2.53452 31.8209 2.33861 30.3027 2.31361C27.5187 2.26838 25.1122 2.93702 23.1198 4.29997C22.2543 3.97679 20.0177 3.20656 17.2824 2.76452C12.5536 2.00088 8.79582 2.57952 6.11423 4.4852C2.91449 6.75929 1.4373 10.8243 1.72345 16.567C1.81974 18.4991 2.9172 24.4427 4.64905 30.1347C6.92872 37.6266 9.40686 41.8677 12.0141 42.7402C12.3193 42.8422 12.6712 42.9136 13.0593 42.9136C14.0104 42.9136 15.1765 42.4836 16.3897 41.0204C17.8696 39.2396 19.4003 37.5021 20.9801 35.81C22.0051 36.3618 23.1311 36.67 24.2827 36.7009C24.285 36.7311 24.2879 36.7613 24.2907 36.7913C24.0924 37.0285 23.8983 37.269 23.7084 37.5129C22.9104 38.5291 22.7444 38.7407 20.1758 39.2711C19.4452 39.4225 17.5047 39.8236 17.4761 41.1881C17.4453 42.6791 19.7701 43.3052 20.0349 43.3716C20.9579 43.6034 21.8472 43.7177 22.6952 43.7177C24.7576 43.7177 26.5726 43.0377 28.0231 41.722C27.9784 47.037 28.1993 52.2743 28.8355 53.87C29.3566 55.1763 30.6294 58.3688 34.65 58.3686C35.24 58.3686 35.8893 58.2997 36.6037 58.1461C40.7998 57.2438 42.6221 55.3834 43.3269 51.2818C43.7041 49.0897 44.3514 43.8554 44.6559 41.0477C45.2984 41.2488 46.1256 41.3409 47.0199 41.3406C48.8849 41.3406 51.037 40.9431 52.3867 40.3147C53.9028 39.6084 56.6388 37.8752 56.1426 36.3693ZM46.1499 17.3966C46.136 18.2254 46.0223 18.9779 45.9018 19.7634C45.772 20.6082 45.6378 21.4816 45.6041 22.5418C45.5708 23.5736 45.6992 24.6463 45.8234 25.6838C46.0744 27.7793 46.332 29.9366 45.3349 32.0652C45.1693 31.7708 45.0217 31.4665 44.8931 31.1541C44.7692 30.8527 44.5 30.3686 44.1273 29.6986C42.6776 27.0904 39.2825 20.9827 41.0205 18.4904C41.5382 17.7486 42.852 16.9859 46.1499 17.3966ZM42.1524 3.35406C46.9859 3.46111 50.8093 5.27497 53.5163 8.74497C55.5925 11.4066 53.3063 23.5172 46.6877 33.9652C46.6212 33.8803 46.5542 33.7957 46.487 33.7113L46.4032 33.6063C48.1135 30.7729 47.7791 27.9695 47.4814 25.4841C47.359 24.4641 47.2435 23.5007 47.2729 22.5956C47.3033 21.6366 47.4297 20.8138 47.5521 20.0184C47.7023 19.0382 47.8552 18.0238 47.8131 16.8282C47.8446 16.7027 47.8572 16.5545 47.8407 16.3786C47.7331 15.232 46.4281 11.8004 43.7682 8.69452C42.3133 6.99565 40.1915 5.09452 37.2944 3.81224C38.5405 3.55315 40.2445 3.31156 42.1524 3.35406ZM15.1058 39.9495C13.7691 41.5618 12.8461 41.2527 12.5425 41.1513C10.5646 40.4895 8.26952 36.2959 6.24609 29.6459C4.49521 23.8918 3.47206 18.1057 3.39095 16.4832C3.13538 11.3518 4.37536 7.77565 7.07667 5.85383C11.4729 2.72656 18.7007 4.59838 21.605 5.5477C21.5633 5.58906 21.5198 5.6277 21.4786 5.66974C16.7126 10.4979 16.8257 18.747 16.8374 19.2513C16.837 19.4459 16.8533 19.7213 16.8755 20.1002C16.9575 21.4877 17.1102 24.07 16.7024 26.9943C16.3236 29.7118 17.1587 32.3716 18.9932 34.2918C19.1814 34.4885 19.3793 34.6757 19.5861 34.8527C18.7696 35.73 16.9949 37.67 15.1058 39.9495ZM20.1987 33.1329C18.7202 31.5852 18.0486 29.4325 18.3561 27.2261C18.7865 24.137 18.6277 21.4466 18.5423 20.0011C18.5303 19.7988 18.5197 19.6216 18.5135 19.4818C19.2098 18.8625 22.4362 17.1284 24.7372 17.6572C25.7871 17.8984 26.4269 18.6157 26.6929 19.8493C28.0695 26.2363 26.8751 28.8984 25.9153 31.0377C25.7175 31.4784 25.5306 31.895 25.3711 32.3259L25.2474 32.6591C24.9343 33.5013 24.643 34.2845 24.4624 35.0281C22.8905 35.0236 21.3614 34.35 20.1987 33.1327V33.1329ZM20.44 41.7466C19.981 41.6316 19.5682 41.4318 19.326 41.2661C19.5283 41.1707 19.8883 41.0406 20.5127 40.9116C23.5344 40.2877 24.0011 39.8472 25.0202 38.5493C25.2538 38.2516 25.5186 37.9143 25.8854 37.5034L25.8859 37.5029C26.4321 36.8893 26.682 36.9934 27.1351 37.182C27.5024 37.3343 27.8602 37.7961 28.0051 38.3043C28.0738 38.5443 28.1508 38.9997 27.8987 39.3543C25.7699 42.3443 22.6678 42.3059 20.44 41.7466ZM36.2538 56.5084C32.5572 57.3029 31.2484 55.4109 30.3859 53.2479C29.8292 51.8516 29.5555 45.5547 29.7497 38.6009C29.7522 38.5084 29.739 38.4191 29.7137 38.335C29.691 38.1689 29.6564 38.0047 29.6103 37.8436C29.3217 36.8318 28.6182 35.9854 27.7743 35.6345C27.439 35.4952 26.8236 35.2395 26.0841 35.4293C26.2418 34.7775 26.5153 34.0413 26.8118 33.2443L26.9362 32.9091C27.0762 32.5311 27.2521 32.1395 27.4378 31.725C28.4422 29.4868 29.8176 26.4211 28.3248 19.4954C27.7657 16.9013 25.8983 15.6345 23.0677 15.9288C21.3707 16.105 19.8181 16.7918 19.0437 17.1856C18.8772 17.2702 18.7249 17.352 18.5826 17.4316C18.7988 14.8179 19.6153 9.93338 22.6698 6.84292C24.5931 4.89747 27.1544 3.93656 30.2751 3.98838C36.424 4.08929 40.3671 7.25474 42.5924 9.8927C44.51 12.1657 45.5483 14.4554 45.9627 15.6904C42.8464 15.3725 40.7269 15.9895 39.6525 17.5304C37.3151 20.8822 40.9312 27.3877 42.6692 30.5143C42.988 31.0872 43.263 31.5825 43.3495 31.7929C43.9155 33.1688 44.6482 34.0875 45.1831 34.7579C45.3471 34.9634 45.5062 35.1627 45.6272 35.3368C44.6833 35.6097 42.988 36.2404 43.1425 39.3929C43.0179 40.9747 42.1318 48.3806 41.6816 50.9972C41.0873 54.4541 39.8193 55.7416 36.2538 56.5086V56.5084ZM51.6837 38.7957C50.7185 39.245 49.1033 39.582 47.569 39.6545C45.8744 39.7341 45.0116 39.4641 44.8086 39.2979C44.7135 37.3334 45.4423 37.1282 46.2138 36.9109C46.335 36.8768 46.4532 36.8434 46.5674 36.8034C46.6383 36.8613 46.716 36.9188 46.8012 36.9752C48.1633 37.877 50.5928 37.9743 54.0227 37.2641L54.0603 37.2566C53.5976 37.6904 52.806 38.2727 51.6837 38.7957Z" fill="white"/>
</svg>
