<svg width="63" height="60" viewBox="0 0 63 60" fill="none" xmlns="http://www.w3.org/2000/svg">
<path d="M43.6495 41.7376C45.9739 41.4971 47.7373 39.4945 47.6571 37.0911C47.5772 34.6879 45.5731 32.7652 43.1685 32.7652H43.0083C40.5232 32.8453 38.5996 34.9281 38.6798 37.4115C38.76 38.6132 39.2408 39.6546 39.9622 40.3756C37.237 45.7431 33.0689 49.6684 26.8169 52.9529C22.5686 55.1961 18.1601 55.9972 13.7517 55.4366C10.1446 54.9558 7.3392 53.3538 5.57553 50.7098C3.01072 46.7845 2.77033 42.5385 4.93457 38.2928C6.45761 35.2485 8.86199 33.0054 10.385 31.8839C10.0644 30.8425 9.58341 29.0801 9.34302 27.7984C-2.27956 36.21 -1.07712 47.5857 2.44973 52.9529C5.09475 56.9587 10.4652 59.442 16.3967 59.442C17.9997 59.442 19.6027 59.2817 21.206 58.8814C31.4659 56.8785 39.2411 50.79 43.6495 41.7376ZM57.7569 31.8039C51.665 24.674 42.6877 20.7487 32.4277 20.7487H31.1453C30.4239 19.3067 28.9009 18.3452 27.2177 18.3452H27.0572C24.5727 18.4254 22.649 20.5082 22.729 22.9918C22.8092 25.395 24.813 27.3177 27.2177 27.3177H27.3778C29.1413 27.2375 30.6643 26.116 31.3055 24.5939H32.7483C38.8402 24.5939 44.6113 26.3562 49.8216 29.8011C53.8292 32.4448 56.7149 35.8896 58.3179 40.0552C59.6805 43.4198 59.6003 46.7043 58.1575 49.5084C55.9133 53.7541 52.146 56.0774 47.1763 56.0774C43.9701 56.0774 40.9243 55.1159 39.321 54.3949C38.4394 55.1961 36.8362 56.4777 35.714 57.2791C39.1608 58.8811 42.6877 59.7625 46.0541 59.7625C53.749 59.7625 59.4401 55.5165 61.6044 51.2707C63.9288 46.6242 63.7684 38.6132 57.7569 31.8039ZM17.0379 43.0992C17.1181 45.5026 19.122 47.4251 21.5266 47.4251H21.687C24.1718 47.3452 26.0954 45.2621 26.0152 42.7788C25.9353 40.3753 23.9312 38.4529 21.5266 38.4529H21.3664C21.206 38.4529 20.9653 38.4529 20.8054 38.5328C17.5189 33.0853 16.1563 27.1574 16.6374 20.7484C16.9577 15.9418 18.561 11.776 21.3664 8.33115C23.6908 5.36705 28.1795 3.92508 31.2255 3.84516C39.7218 3.68484 43.3286 14.2593 43.5693 18.5053C44.6113 18.7456 46.3747 19.3065 47.5772 19.707C46.6151 6.72934 38.5996 0 30.9049 0C23.6908 0 17.0379 5.20721 14.3927 12.8978C10.7056 23.1519 13.1103 33.0054 17.5989 40.7761C17.1983 41.3368 16.9577 42.2181 17.0379 43.0994V43.0992Z" fill="#764ABC"/>
</svg>
