<svg width="100" height="60" viewBox="0 0 100 60" fill="none" xmlns="http://www.w3.org/2000/svg">
<path d="M49.9995 0C36.6676 0 28.3348 6.64948 25.002 19.948C30.0015 13.2986 35.8341 10.8051 42.5002 12.4675C46.3034 13.4158 49.0219 16.1684 52.031 19.2148C56.9328 24.178 62.6057 29.9221 74.9971 29.9221C88.329 29.9221 96.6617 23.2726 99.9946 9.97402C94.9951 16.6235 89.1625 19.117 82.4963 17.4545C78.6932 16.5062 75.9747 13.7536 72.9656 10.7073C68.0638 5.74403 62.3909 0 49.9995 0ZM25.002 29.9221C11.6701 29.9221 3.33727 36.5716 0.00439453 49.8701C5.00391 43.2206 10.8365 40.7271 17.5027 42.3896C21.3058 43.3379 24.0243 46.0905 27.0334 49.1369C31.9353 54.1001 37.6081 59.8442 49.9995 59.8442C63.3314 59.8442 71.6642 53.1947 74.9971 39.8961C69.9976 46.5456 64.1649 49.0391 57.4988 47.3766C53.6956 46.4283 50.9771 43.6757 47.9681 40.6293C43.0662 35.6661 37.3933 29.9221 25.002 29.9221Z" fill="url(#paint0_linear)"/>
<defs>
<linearGradient id="paint0_linear" x1="-2.77333" y1="19.1501" x2="83.4765" y2="69.0049" gradientUnits="userSpaceOnUse">
<stop stop-color="#2298BD"/>
<stop offset="1" stop-color="#0ED7B5"/>
</linearGradient>
</defs>
</svg>
