<svg width="60" height="60" viewBox="0 0 60 60" fill="none" xmlns="http://www.w3.org/2000/svg">
<path d="M0 30V60H60V0H0V30Z" fill="#007ACC"/>
<path d="M13.2683 30.1992L13.2493 32.6561H21.0586V54.8468H26.5829V32.6561H34.3922V30.2468C34.3922 28.9132 34.3636 27.799 34.3257 27.7704C34.2971 27.7324 29.5447 27.7132 23.7828 27.7228L13.2971 27.7514L13.2685 30.199L13.2683 30.1992Z" fill="white"/>
<path d="M48.4141 27.6816C49.9378 28.0627 51.0998 28.7386 52.1664 29.8435C52.7189 30.4341 53.5378 31.5104 53.6046 31.7675C53.6233 31.8436 51.014 33.5961 49.4332 34.5769C49.376 34.6151 49.1472 34.3674 48.8901 33.9863C48.1188 32.8627 47.3093 32.3768 46.0711 32.2913C44.2523 32.1673 43.0807 33.1198 43.0903 34.71C43.0903 35.1769 43.1568 35.453 43.3474 35.8341C43.7475 36.6626 44.4902 37.1579 46.8236 38.1673C51.1188 40.0151 52.9568 41.2341 54.0998 42.9673C55.376 44.9009 55.6617 47.9865 54.795 50.2817C53.8427 52.7768 51.4809 54.4723 48.1568 55.0341C47.1283 55.2151 44.6903 55.1865 43.5855 54.9865C41.1761 54.5579 38.8903 53.3675 37.4807 51.8056C36.9283 51.196 35.8521 49.6055 35.9189 49.4911C35.9475 49.4532 36.195 49.3008 36.4711 49.1389C36.7378 48.9865 37.7475 48.4053 38.6997 47.8531L40.4236 46.853L40.7854 47.3865C41.2903 48.1578 42.3949 49.2151 43.0617 49.5673C44.9758 50.577 47.6046 50.434 48.8997 49.272C49.4521 48.7674 49.6807 48.2436 49.6807 47.472C49.6807 46.7768 49.5949 46.4722 49.233 45.9486C48.7666 45.2818 47.8141 44.7197 45.1092 43.5486C42.014 42.215 40.6807 41.3865 39.4617 40.0721C38.7569 39.3104 38.0901 38.0911 37.814 37.0721C37.5855 36.2246 37.5281 34.1007 37.7093 33.2436C38.3475 30.2529 40.6045 28.1675 43.8616 27.5483C44.9186 27.3483 47.3758 27.4245 48.4141 27.6818V27.6816Z" fill="white"/>
</svg>
