<svg width="60" height="60" viewBox="0 0 60 60" fill="none" xmlns="http://www.w3.org/2000/svg">
<path d="M53.3333 8.33337H6.66665C5.78259 8.33337 4.93474 8.68456 4.30962 9.30968C3.6845 9.93481 3.33331 10.7827 3.33331 11.6667V48.3334C3.33331 49.2174 3.6845 50.0653 4.30962 50.6904C4.93474 51.3155 5.78259 51.6667 6.66665 51.6667H53.3333C54.2174 51.6667 55.0652 51.3155 55.6903 50.6904C56.3155 50.0653 56.6666 49.2174 56.6666 48.3334V11.6667C56.6666 10.7827 56.3155 9.93481 55.6903 9.30968C55.0652 8.68456 54.2174 8.33337 53.3333 8.33337ZM6.66665 11.6667H53.3333V15.3334H6.66665V11.6667ZM6.66665 48.3334V18H53.3333V48.3334H6.66665Z" fill="black"/>
<path d="M28.3333 38.3334H38.3333V41.6667H28.3333V38.3334Z" fill="black"/>
<path d="M11.6667 26.1332L22.9834 31.3332L11.6667 36.5166V40.1832L27.6667 32.8332V29.8166L11.6667 22.4666V26.1332Z" fill="black"/>
</svg>
