<svg width="16" height="14" viewBox="0 0 16 14" fill="none" xmlns="http://www.w3.org/2000/svg">
<path d="M16 2.16786C15.4116 2.42859 14.7795 2.60475 14.115 2.68438C14.8007 2.27412 15.3136 1.62842 15.5582 0.867768C14.914 1.25039 14.209 1.51972 13.4738 1.66403C12.9794 1.13615 12.3245 0.786258 11.6109 0.668684C10.8973 0.55111 10.1648 0.672431 9.52717 1.01381C8.88955 1.35519 8.38247 1.89753 8.08467 2.55663C7.78686 3.21573 7.71499 3.95471 7.88021 4.65884C6.57496 4.5933 5.29807 4.25404 4.13242 3.66309C2.96677 3.07213 1.93841 2.24267 1.11407 1.22855C0.832203 1.71477 0.670131 2.2785 0.670131 2.87887C0.669817 3.41934 0.802912 3.95153 1.05761 4.42822C1.3123 4.90492 1.68073 5.31138 2.13019 5.61154C1.60893 5.59495 1.09918 5.4541 0.643354 5.20072V5.243C0.643302 6.00103 0.905511 6.73573 1.38549 7.32245C1.86547 7.90916 2.53365 8.31174 3.27667 8.46188C2.79312 8.59275 2.28615 8.61203 1.79406 8.51826C2.0037 9.1705 2.41205 9.74086 2.96194 10.1495C3.51184 10.5581 4.17575 10.7846 4.86074 10.7971C3.69794 11.71 2.26188 12.2051 0.783581 12.2029C0.521717 12.203 0.260073 12.1877 0 12.1571C1.50056 13.1219 3.24731 13.634 5.03127 13.632C11.0702 13.632 14.3715 8.6303 14.3715 4.29241C14.3715 4.15148 14.368 4.00914 14.3617 3.86821C15.0038 3.40382 15.5581 2.82876 15.9986 2.16998L16 2.16786V2.16786Z" fill="#0C66FF"/>
</svg>
