<svg width="24" height="20" viewBox="0 0 24 20" fill="none" xmlns="http://www.w3.org/2000/svg">
<path d="M21.75 0.481934H2.25C1.00734 0.481934 0 1.52401 0 2.80952V16.775C0 18.0605 1.00734 19.1026 2.25 19.1026H21.75C22.9927 19.1026 24 18.0605 24 16.775V2.80952C24 1.52401 22.9927 0.481934 21.75 0.481934ZM21.75 2.80952V4.78821C20.699 5.67361 19.0234 7.05038 15.4412 9.95206C14.6518 10.5944 13.0881 12.1377 12 12.1197C10.9121 12.1379 9.34786 10.5942 8.55877 9.95206C4.97719 7.05082 3.30117 5.67376 2.25 4.78821V2.80952H21.75ZM2.25 16.775V7.77494C3.32409 8.65996 4.8473 9.90187 7.16897 11.7826C8.19352 12.6169 9.98775 14.4586 12 14.4474C14.0024 14.4586 15.7739 12.6436 16.8306 11.7829C19.1522 9.9023 20.6759 8.66005 21.75 7.77499V16.775H2.25Z" fill="#0C66FF"/>
</svg>
