<svg width="25" height="25" viewBox="0 0 25 25" fill="none" xmlns="http://www.w3.org/2000/svg">
<path d="M17.875 9.17959C18.5977 8.73279 19.155 8.06248 19.4623 7.27032C19.7695 6.47817 19.8101 5.60741 19.5777 4.79014C19.3453 3.97287 18.8527 3.25369 18.1746 2.7417C17.4966 2.22971 16.67 1.95285 15.8203 1.95313H9.1797C8.33001 1.95282 7.50341 2.22966 6.82529 2.74166C6.14718 3.25365 5.65457 3.97285 5.42219 4.79015C5.18981 5.60745 5.23035 6.47824 5.53766 7.27041C5.84496 8.06259 6.40227 8.73291 7.12502 9.17969C6.55895 9.52939 6.09169 10.018 5.76763 10.5991C5.44357 11.1803 5.27346 11.8346 5.27347 12.5C5.27348 13.1654 5.44361 13.8197 5.76769 14.4008C6.09177 14.9819 6.55904 15.4705 7.12511 15.8202C6.54647 16.1784 6.07145 16.6815 5.74712 17.2797C5.42278 17.878 5.2604 18.5506 5.27605 19.2309C5.2917 19.9112 5.48484 20.5757 5.83634 21.1584C6.18785 21.7411 6.6855 22.2218 7.28 22.5529C7.8745 22.8841 8.54521 23.0542 9.22567 23.0463C9.90614 23.0384 10.5727 22.8529 11.1594 22.5081C11.7461 22.1632 12.2325 21.6711 12.5704 21.0804C12.9083 20.4898 13.086 19.821 13.086 19.1405V15.286C13.4779 15.6708 13.9466 15.9686 14.4615 16.1599C14.9763 16.3512 15.5258 16.4317 16.0739 16.3962C16.622 16.3607 17.1565 16.2099 17.6423 15.9537C18.1282 15.6975 18.5545 15.3417 18.8935 14.9095C19.2324 14.4773 19.4764 13.9784 19.6094 13.4455C19.7424 12.9126 19.7615 12.3576 19.6653 11.8168C19.5692 11.276 19.3601 10.7616 19.0516 10.3072C18.7431 9.85275 18.3421 9.46851 17.875 9.17959ZM18.5547 5.85938C18.5539 6.58399 18.2658 7.27873 17.7536 7.7913C17.2414 8.30386 16.5469 8.59243 15.8223 8.59375L15.8203 8.59365L15.8165 8.59375L13.086 8.59365V3.125H15.8203C16.5453 3.1258 17.2403 3.41414 17.7529 3.92676C18.2656 4.43939 18.5539 5.13442 18.5547 5.85938ZM6.44533 5.85938C6.44613 5.13442 6.73447 4.43939 7.24709 3.92676C7.75971 3.41414 8.45475 3.1258 9.1797 3.125H11.9141V8.59365H9.17785C8.45323 8.59236 7.75869 8.30381 7.24647 7.79127C6.73425 7.27872 6.44615 6.58399 6.44533 5.85938ZM6.44533 12.4999C6.44613 11.7753 6.73422 11.0805 7.24644 10.5679C7.75866 10.0554 8.45321 9.76682 9.17785 9.76553L9.1797 9.76562H11.9141V15.2342L9.1797 15.2343C8.45475 15.2335 7.75971 14.9451 7.24709 14.4325C6.73447 13.9199 6.44613 13.2249 6.44533 12.4999ZM9.1797 21.8748C8.81925 21.877 8.46193 21.8078 8.1283 21.6714C7.79466 21.5349 7.4913 21.3339 7.23565 21.0797C6.98001 20.8256 6.77713 20.5235 6.6387 20.1907C6.50026 19.8578 6.42899 19.5009 6.42899 19.1405C6.42899 18.78 6.50026 18.4231 6.6387 18.0903C6.77713 17.7575 6.98001 17.4553 7.23565 17.2012C7.4913 16.9471 7.79466 16.746 8.1283 16.6096C8.46193 16.4731 8.81925 16.404 9.1797 16.4062H11.9141V19.1405C11.9133 19.8655 11.6249 20.5605 11.1123 21.0731C10.5997 21.5857 9.90464 21.874 9.1797 21.8748ZM15.8203 15.2343C15.0979 15.2305 14.4064 14.941 13.8968 14.429C13.3871 13.9171 13.1008 13.2242 13.1003 12.5018C13.0998 11.7795 13.3852 11.0862 13.8941 10.5735C14.403 10.0609 15.0941 9.77042 15.8165 9.76562H15.8223C16.5446 9.77019 17.2358 10.0604 17.7449 10.5729C18.254 11.0854 18.5396 11.7785 18.5394 12.5009C18.5391 13.2233 18.253 13.9162 17.7436 14.4284C17.2341 14.9405 16.5427 15.2302 15.8203 15.2343Z" fill="white"/>
</svg>
