<svg width="60" height="60" viewBox="0 0 60 60" fill="none" xmlns="http://www.w3.org/2000/svg">
<g clip-path="url(#clip0)">
<path d="M40 40C45.5229 40 50 35.5228 50 30C50 24.4772 45.5229 20 40 20C34.4772 20 30 24.4772 30 30C30 35.5228 34.4772 40 40 40Z" fill="#19BCFE"/>
<path fill-rule="evenodd" clip-rule="evenodd" d="M20.0001 60C22.6522 60 25.1958 58.9464 27.0711 57.0711C28.9465 55.1957 30.0001 52.6522 30.0001 50V40H20.0001C17.3479 40 14.8044 41.0536 12.929 42.9289C11.0536 44.8043 10.0001 47.3478 10.0001 50C10.0001 52.6522 11.0536 55.1957 12.929 57.0711C14.8044 58.9464 17.3479 60 20.0001 60Z" fill="#09CF83"/>
<path fill-rule="evenodd" clip-rule="evenodd" d="M20.0001 40H30.0001V20H20.0001C17.3479 20 14.8044 21.0536 12.929 22.9289C11.0536 24.8043 10.0001 27.3478 10.0001 30C10.0001 32.6522 11.0536 35.1957 12.929 37.0711C14.8044 38.9464 17.3479 40 20.0001 40Z" fill="#A259FF"/>
<path fill-rule="evenodd" clip-rule="evenodd" d="M20.0001 20H30.0001V0H20.0001C17.3479 0 14.8044 1.05357 12.929 2.92893C11.0536 4.8043 10.0001 7.34784 10.0001 10C10.0001 12.6522 11.0536 15.1957 12.929 17.0711C14.8044 18.9464 17.3479 20 20.0001 20Z" fill="#F24E1E"/>
<path fill-rule="evenodd" clip-rule="evenodd" d="M40 20H30V0H40C42.6522 0 45.1957 1.05357 47.0711 2.92893C48.9464 4.8043 50 7.34784 50 10C50 12.6522 48.9464 15.1957 47.0711 17.0711C45.1957 18.9464 42.6522 20 40 20Z" fill="#FF7262"/>
</g>
<defs>
<clipPath id="clip0">
<rect width="60" height="60" fill="white"/>
</clipPath>
</defs>
</svg>
