<svg width="60" height="60" viewBox="0 0 60 60" fill="none" xmlns="http://www.w3.org/2000/svg">
<g clip-path="url(#clip0)">
<path d="M58.8684 27.3281L32.6719 1.13297C31.1641 -0.375703 28.7173 -0.375703 27.2077 1.13297L21.7678 6.57281L28.6685 13.4735C30.2721 12.9316 32.111 13.2952 33.3893 14.5734C34.6737 15.8599 35.0346 17.7145 34.4796 19.3233L41.13 25.9739C42.739 25.4196 44.5955 25.7782 45.8805 27.0654C47.6766 28.8607 47.6766 31.7705 45.8805 33.567C44.0841 35.3637 41.1743 35.3637 39.3769 33.567C38.0259 32.2146 37.6922 30.2306 38.3761 28.5663L32.1741 22.3643L32.1734 38.6855C32.623 38.9078 33.0336 39.2014 33.3893 39.555C35.1853 41.3503 35.1853 44.2603 33.3893 46.0582C31.5928 47.854 28.6816 47.854 26.8877 46.0582C25.0917 44.2603 25.0917 41.3506 26.8877 39.5552C27.3181 39.1246 27.8296 38.7836 28.3927 38.5519V22.0786C27.8288 21.8484 27.317 21.5072 26.8877 21.0752C25.527 19.7163 25.1998 17.7197 25.897 16.0488L19.0945 9.24563L1.13203 27.207C-0.377344 28.717 -0.377344 31.1641 1.13203 32.673L27.3291 58.8687C28.8373 60.3776 31.2837 60.3776 32.7937 58.8687L58.8682 32.7947C60.3771 31.2853 60.3771 28.8368 58.8682 27.3281" fill="#DE4C36"/>
</g>
<defs>
<clipPath id="clip0">
<rect width="60" height="60" fill="white"/>
</clipPath>
</defs>
</svg>
