<svg width="68" height="60" viewBox="0 0 68 60" fill="none" xmlns="http://www.w3.org/2000/svg">
<path d="M55.9031 19.4273C55.1796 19.1813 54.45 18.9535 53.715 18.7439C53.8384 18.2439 53.9521 17.75 54.053 17.2647C55.7095 9.29601 54.6266 2.87627 50.9277 0.762586C47.3813 -1.26373 41.5814 0.849165 35.7239 5.90101C35.1467 6.39978 34.5822 6.91293 34.0311 7.43995C33.6621 7.0895 33.2867 6.74584 32.9049 6.40916C26.7659 1.00759 20.6126 -1.26899 16.9177 0.850744C13.3745 2.88338 12.3253 8.91838 13.8166 16.4705C13.965 17.2184 14.1325 17.9625 14.319 18.7021C13.448 18.9473 12.6076 19.2084 11.8032 19.4863C4.60576 21.9731 0.00936127 25.8702 0.00936127 29.9126C0.00936127 34.0876 4.94381 38.2752 12.4403 40.8144C13.048 41.0194 13.6608 41.2094 14.2781 41.3842C14.0777 42.1807 13.8997 42.9826 13.7444 43.7889C12.3226 51.21 13.4329 57.1023 16.9666 59.1221C20.6163 61.2079 26.742 59.0642 32.7065 53.8971C33.1902 53.477 33.6632 53.045 34.1251 52.6015C34.7219 53.1722 35.3347 53.7263 35.9627 54.2631C41.7405 59.19 47.4467 61.1794 50.9769 59.1542C54.6231 57.0623 55.8083 50.7323 54.2697 43.031C54.1485 42.4277 54.0126 41.8273 53.8621 41.2305C54.2923 41.1042 54.7145 40.9742 55.1261 40.8389C62.9194 38.2802 67.9901 34.1434 67.9901 29.9126C67.9901 25.8555 63.2453 21.9321 55.9031 19.4273ZM54.2129 38.1073C53.8411 38.2292 53.4598 38.3468 53.071 38.4613C52.2106 35.7621 51.0496 32.8921 49.6287 29.9265C50.9846 27.0318 52.1009 24.1984 52.9372 21.5168C53.6326 21.7163 54.3074 21.9265 54.958 22.1484C61.2489 24.2947 65.0861 27.4676 65.0861 29.9126C65.0861 32.5168 60.9419 35.8976 54.2129 38.1073ZM51.4209 43.59C52.1012 46.9952 52.1981 50.0742 51.7475 52.4813C51.3428 54.6442 50.5286 56.086 49.5217 56.6636C47.3795 57.8926 42.7979 56.2952 37.8568 52.0815C37.2727 51.5824 36.7027 51.0673 36.1475 50.5368C38.0632 48.4607 39.9775 46.0473 41.8459 43.3668C45.1324 43.0779 48.2372 42.6052 51.0528 41.9602C51.1914 42.5147 51.3146 43.0584 51.4209 43.59ZM23.1855 56.4513C21.0924 57.1836 19.4253 57.2047 18.4175 56.6289C16.2732 55.4034 15.3818 50.6721 16.5977 44.3257C16.7423 43.5758 16.9078 42.83 17.094 42.0892C19.8786 42.6997 22.9608 43.1386 26.255 43.4034C28.1361 46.0263 30.1057 48.4371 32.0907 50.5481C31.6689 50.9526 31.237 51.3468 30.7956 51.7302C28.1579 54.015 25.5149 55.636 23.1855 56.4513ZM13.3798 38.0913C10.0649 36.9684 7.32738 35.5092 5.45101 33.9168C3.76477 32.486 2.91368 31.0652 2.91368 29.9126C2.91368 27.4594 6.60402 24.3305 12.7592 22.2039C13.5062 21.946 14.288 21.7026 15.0992 21.4742C15.9501 24.2163 17.0659 27.0834 18.4125 29.9826C17.0484 32.9247 15.9166 35.8376 15.0575 38.6121C14.4941 38.4521 13.9347 38.2785 13.3798 38.0913ZM16.6668 15.9176C15.3892 9.44732 16.2376 4.56653 18.3729 3.34153C20.6471 2.0368 25.6761 3.89706 30.9767 8.56127C31.3224 8.86611 31.6624 9.17712 31.9967 9.49416C30.0215 11.596 28.07 13.9889 26.2056 16.5963C23.0084 16.89 19.9479 17.3615 17.1341 17.9934C16.9608 17.3055 16.8049 16.6135 16.6668 15.9178V15.9176ZM45.9906 23.0934C45.326 21.9557 44.6368 20.8324 43.9233 19.7242C46.0923 19.996 48.1705 20.3568 50.1221 20.7978C49.5363 22.6589 48.806 24.6044 47.9464 26.5992C47.3181 25.4178 46.666 24.249 45.9906 23.0934ZM34.0324 11.551C35.3718 12.9892 36.7134 14.5947 38.0329 16.3368C35.3562 16.2115 32.675 16.211 29.9982 16.3352C31.319 14.6092 32.672 13.0057 34.0324 11.551ZM21.9974 23.1131C21.3304 24.2594 20.6906 25.4209 20.0783 26.5968C19.2328 24.6092 18.5092 22.6547 17.9183 20.7673C19.8579 20.3373 21.9263 19.9857 24.0815 19.7189C23.3601 20.8339 22.6652 21.9655 21.9974 23.1129V23.1131ZM24.1433 40.311C21.9167 40.0647 19.8173 39.7313 17.8782 39.3129C18.4784 37.3918 19.2179 35.3957 20.0817 33.3655C20.6964 34.5422 21.339 35.7045 22.0088 36.8513C22.6977 38.0302 23.4109 39.185 24.1433 40.311ZM34.1126 48.4768C32.736 47.0052 31.3631 45.3771 30.0223 43.626C31.3241 43.6765 32.651 43.7023 33.9997 43.7023C35.3854 43.7023 36.7551 43.6715 38.1033 43.6121C36.7795 45.3947 35.443 47.0252 34.1126 48.4768ZM47.9738 33.2618C48.8825 35.3144 49.6483 37.3 50.2564 39.1881C48.2855 39.6339 46.1574 39.9929 43.9151 40.2594C44.6336 39.1306 45.3294 37.9878 46.0021 36.8315C46.6859 35.6563 47.3433 34.4661 47.9738 33.2618ZM43.4865 35.3936C42.4568 37.1664 41.3691 38.9054 40.2253 40.6081C38.1534 40.7535 36.0769 40.8258 33.9997 40.8247C31.8841 40.8247 29.8264 40.7594 27.8448 40.6321C26.6712 38.9333 25.5628 37.1912 24.522 35.4094H24.5223C23.4864 33.6371 22.5188 31.8264 21.6217 29.9813C22.5166 28.1357 23.4812 26.3242 24.5135 24.5505L24.5132 24.5507C25.5452 22.7766 26.6447 21.0419 27.8095 19.3505C29.8311 19.1989 31.9043 19.12 33.9995 19.12H33.9997C36.1045 19.12 38.1803 19.1997 40.2014 19.3523C41.3544 21.0412 42.447 22.7699 43.4769 24.5352C44.5127 26.305 45.4901 28.1077 46.4076 29.9405C45.4995 31.792 44.5252 33.6109 43.4865 35.3936ZM49.4773 3.25574C51.7536 4.5568 52.6389 9.80338 51.2087 16.6836C51.1173 17.1226 51.0148 17.5697 50.9033 18.0231C48.0826 17.3778 45.0201 16.8981 41.8135 16.6C39.9457 13.9639 38.0101 11.5673 36.067 9.49259C36.5763 9.00614 37.0976 8.53231 37.6306 8.07153C42.6495 3.74338 47.3402 2.03443 49.4773 3.25574ZM33.9997 23.8968C37.3523 23.8968 40.0702 26.5902 40.0702 29.9126C40.0702 33.235 37.3523 35.9284 33.9997 35.9284C30.6472 35.9284 27.9293 33.235 27.9293 29.9126C27.9293 26.5902 30.6472 23.8968 33.9997 23.8968Z" fill="#00D8FF"/>
</svg>
