<svg width="80" height="60" viewBox="0 0 80 60" fill="none" xmlns="http://www.w3.org/2000/svg">
<path d="M68.8288 34.5356C66.0466 34.5499 63.6282 35.2203 61.6036 36.2112C60.8604 34.7393 60.1175 33.4281 59.9866 32.4662C59.8407 31.3443 59.666 30.6593 59.8407 29.3187C60.0156 27.9781 60.8023 26.069 60.7876 25.9234C60.7732 25.7778 60.6126 25.0928 59.0103 25.0784C57.408 25.0637 56.0241 25.3843 55.8638 25.8068C55.7035 26.2293 55.3977 27.1912 55.1937 28.1818C54.9169 29.6393 51.9891 34.8412 50.314 37.5662C49.7748 36.5028 49.3087 35.5699 49.2065 34.8268C49.0609 33.7049 48.886 33.0199 49.0609 31.6793C49.2359 30.3387 50.0225 28.4299 50.0078 28.284C49.9931 28.1384 49.8329 27.4534 48.2306 27.439C46.6279 27.4243 45.244 27.7449 45.084 28.1674C44.9238 28.5903 44.7488 29.5809 44.4139 30.5428C44.0787 31.5046 40.1893 40.1896 39.1696 42.4334C38.7576 43.3415 38.3253 44.2404 37.8732 45.1293C37.8732 45.1293 37.8585 45.1731 37.8148 45.2459C37.6727 45.5246 37.5271 45.8015 37.378 46.0765V46.0909C37.1593 46.4846 36.9263 46.8487 36.8098 46.8487C36.7223 46.8487 36.562 45.7996 36.8388 44.3715C37.4214 41.3553 38.8054 36.6631 38.791 36.5028C38.791 36.4153 39.0531 35.5993 37.8879 35.1765C36.7513 34.754 36.3436 35.4534 36.2415 35.4534C36.1396 35.4534 36.0665 35.7012 36.0665 35.7012C36.0665 35.7012 37.3343 30.4262 33.6486 30.4262C31.3471 30.4262 28.1712 32.9471 26.5979 35.2203C24.8095 36.1938 23.0225 37.1702 21.2371 38.1493C20.378 38.6303 19.4892 39.1112 18.6589 39.5628C18.6004 39.5046 18.5423 39.4315 18.4839 39.3734C14.0262 34.6084 5.78132 31.2421 6.1309 24.8453C6.26211 22.5137 7.06311 16.3934 21.9656 8.96181C34.2312 2.91432 43.9916 4.58994 45.6814 8.30588C48.0993 13.6103 40.4517 23.4609 27.7779 24.8887C22.9416 25.4281 20.4068 23.5628 19.766 22.8634C19.0959 22.1346 18.9938 22.0909 18.746 22.2368C18.3383 22.4556 18.6004 23.1112 18.746 23.4899C19.125 24.4806 20.6835 26.2293 23.3202 27.0893C25.6511 27.8468 31.3177 28.2696 38.179 25.6174C45.856 22.6446 51.8579 14.3824 50.0953 7.46088C48.3324 0.437128 36.6785 -1.87975 25.6511 2.03994C19.0959 4.37182 11.9869 8.04369 6.87379 12.8234C0.79913 18.5062 -0.162445 23.4462 0.23087 25.5156C1.64418 32.8596 11.7685 37.6393 15.8182 41.1802C15.6142 41.2968 15.4246 41.399 15.2646 41.4865C13.2396 42.4918 5.5189 46.5281 3.59607 50.7977C1.41113 55.6356 3.94596 59.104 5.62106 59.5699C10.8216 61.0127 16.1678 58.419 19.0375 54.1346C21.9072 49.8506 21.5576 44.284 20.2321 41.734C20.2174 41.7049 20.2031 41.6756 20.1737 41.6465C20.6982 41.3406 21.2371 41.0199 21.7616 40.714C22.7257 40.1439 23.702 39.5948 24.6898 39.0671C24.1943 40.4224 23.8301 42.0399 23.6554 44.3715C23.4367 47.1112 24.5583 50.6665 26.0297 52.0653C26.6854 52.6777 27.4574 52.6921 27.9528 52.6921C29.6717 52.6921 30.4439 51.264 31.3033 49.5737C32.3521 47.5046 33.299 45.1003 33.299 45.1003C33.299 45.1003 32.119 51.5993 35.324 51.5993C36.4892 51.5993 37.6692 50.0837 38.1937 49.3115V49.3259C38.1937 49.3259 38.2227 49.2821 38.2812 49.1803C38.3977 48.9909 38.4705 48.874 38.4705 48.874V48.8452C38.9366 48.029 39.9856 46.1784 41.5442 43.1037C43.5545 39.1403 45.492 34.1859 45.492 34.1859C45.492 34.1859 45.667 35.3953 46.264 37.4062C46.6139 38.5865 47.3418 39.8834 47.9247 41.1365C47.4586 41.7924 47.1671 42.1565 47.1671 42.1565L47.1818 42.1712C46.8029 42.6665 46.3952 43.2056 45.9435 43.7306C44.3555 45.6246 42.462 47.7962 42.1996 48.4224C41.8935 49.1656 41.9666 49.7049 42.5495 50.1421C42.9719 50.4628 43.7291 50.5062 44.5014 50.4628C45.9291 50.3606 46.9341 50.0109 47.4292 49.7924C48.2015 49.5156 49.1047 49.0928 49.9494 48.4662C51.5083 47.3149 52.4549 45.6684 52.3677 43.4974C52.324 42.3024 51.9307 41.1074 51.4499 39.9853C51.5958 39.7815 51.7267 39.5774 51.8725 39.3734C54.3343 35.774 56.2427 31.8249 56.2427 31.8249C56.2427 31.8249 56.4177 33.0343 57.0147 35.0456C57.3062 36.0656 57.9035 37.1731 58.4277 38.2512C56.1115 40.1312 54.6839 42.3168 54.174 43.7449C53.2565 46.3971 53.97 47.5918 55.3249 47.8687C55.9366 47.9999 56.8107 47.7084 57.4517 47.4315C58.2674 47.1693 59.229 46.7178 60.1468 46.0471C61.7057 44.8962 63.2059 43.2931 63.1184 41.1221C63.0747 40.1312 62.8126 39.1546 62.4483 38.2074C64.4149 37.3918 66.9497 36.9399 70.1834 37.3187C77.1178 38.1346 78.487 42.4624 78.2246 44.2843C77.9625 46.1056 76.5058 47.0965 76.0253 47.4024C75.5442 47.7087 75.3843 47.8106 75.428 48.029C75.4861 48.3496 75.7192 48.3353 76.1272 48.2768C76.6954 48.1749 79.7691 46.8049 79.9 43.4534C80.1187 39.1693 76.0397 34.4918 68.8288 34.5356ZM15.3374 52.5756C13.0356 55.0818 9.83099 56.029 8.44705 55.2278C6.96127 54.3678 7.5439 50.6665 10.3699 48.0146C12.0887 46.3971 14.303 44.8959 15.7744 43.9781C16.1093 43.774 16.6048 43.4828 17.2021 43.1184C17.304 43.0599 17.3624 43.0309 17.3624 43.0309L17.712 42.8121C18.746 46.6009 17.7557 49.9381 15.3374 52.5756ZM32.09 41.1802C31.2887 43.1331 29.6136 48.1312 28.5939 47.8543C27.7198 47.6212 27.1806 43.8324 28.4189 40.0874C29.0453 38.2074 30.3708 35.9634 31.1431 35.0893C32.3958 33.6903 33.7798 33.2237 34.1147 33.7924C34.5373 34.5356 32.5851 39.9562 32.09 41.1802ZM45.9144 47.7959C45.5792 47.9709 45.259 48.0874 45.1131 47.9999C45.0113 47.9415 45.259 47.7084 45.259 47.7084C45.259 47.7084 46.9925 45.8434 47.677 44.9981C48.0706 44.5028 48.5364 43.9199 49.0319 43.264V43.4534C49.0319 45.6831 46.8757 47.184 45.9141 47.7959H45.9144ZM56.5776 45.3624C56.3299 45.1874 56.3736 44.6046 57.204 42.7831C57.5245 42.069 58.2818 40.8743 59.5786 39.7231C59.7242 40.1893 59.8263 40.6412 59.8116 41.0637C59.7969 43.8762 57.7869 44.9253 56.5776 45.3624Z" fill="#CD6799"/>
</svg>
