<svg width="50" height="60" viewBox="0 0 50 60" fill="none" xmlns="http://www.w3.org/2000/svg">
<g clip-path="url(#clip0)">
<path d="M42.2439 54.5108V38.4823H47.5057V59.8307H0.0117569V38.4823H5.27374V54.5106L42.2439 54.5108Z" fill="#BCBBBB"/>
<path d="M11.0823 36.9624L36.9136 42.4204L38.0068 37.1696L12.176 31.7116L11.0825 36.9624H11.0823ZM14.4991 24.5264L38.417 35.7878L40.6039 30.9517L16.686 19.6212L14.4991 24.5264ZM21.1278 12.6432L41.4238 29.7081L44.7722 25.6318L24.4763 8.56697L21.1278 12.6432ZM34.2486 0L30.0114 3.17803L45.7288 24.5955L49.9657 21.4174L34.2486 0ZM10.5353 49.1218H36.9134V43.802H10.5355V49.1218H10.5353Z" fill="#F48023"/>
</g>
<defs>
<clipPath id="clip0">
<rect width="50" height="60" fill="white"/>
</clipPath>
</defs>
</svg>
