<svg width="60" height="60" viewBox="0 0 60 60" fill="none" xmlns="http://www.w3.org/2000/svg">
<path d="M54.3938 9.43124L43.5826 4.22624C42.972 3.93186 42.285 3.83471 41.6168 3.94827C40.9486 4.06182 40.3322 4.38045 39.8532 4.85999L4.46255 37.125C4.03316 37.5146 3.77613 38.0589 3.748 38.638C3.71987 39.2171 3.92294 39.7837 4.31255 40.2131C4.35943 40.2637 4.4063 40.3125 4.45693 40.3575L7.3463 42.9825C7.72386 43.3261 8.20985 43.5266 8.71986 43.5492C9.22988 43.5719 9.7317 43.4151 10.1382 43.1062L52.7663 10.7812C53.0883 10.5369 53.4721 10.3873 53.8745 10.3493C54.2769 10.3112 54.6819 10.3863 55.044 10.5659C55.406 10.7456 55.7107 11.0228 55.9238 11.3662C56.1369 11.7097 56.2499 12.1058 56.2501 12.51V12.3844C56.25 11.7673 56.0758 11.1628 55.7474 10.6404C55.419 10.1179 54.9498 9.69882 54.3938 9.43124Z" fill="#0065A9"/>
<path d="M54.3938 50.5688L43.5826 55.7757C42.9718 56.0692 42.285 56.1659 41.617 56.0524C40.949 55.9389 40.3327 55.6207 39.8532 55.1419L4.46255 22.875C4.03316 22.4854 3.77613 21.9412 3.748 21.362C3.71987 20.7829 3.92294 20.2163 4.31255 19.7869C4.35943 19.7363 4.4063 19.6875 4.45693 19.6425L7.3463 17.0175C7.72424 16.6725 8.21134 16.471 8.72262 16.4484C9.23389 16.4258 9.73687 16.5834 10.1438 16.8938L52.7663 49.2188C53.0883 49.4631 53.4721 49.6127 53.8745 49.6508C54.2769 49.6888 54.6819 49.6138 55.044 49.4341C55.406 49.2544 55.7107 48.9773 55.9238 48.6338C56.1369 48.2903 56.2499 47.8942 56.2501 47.49V47.625C56.248 48.2405 56.0729 48.8429 55.7446 49.3635C55.4164 49.884 54.9483 50.3017 54.3938 50.5688Z" fill="#007ACC"/>
<path d="M43.5825 55.7756C42.9717 56.0691 42.2849 56.1658 41.6169 56.0523C40.9489 55.9388 40.3326 55.6207 39.8531 55.1419C40.1223 55.4076 40.464 55.588 40.8354 55.6604C41.2067 55.7327 41.5911 55.6939 41.9405 55.5488C42.2898 55.4036 42.5886 55.1586 42.7993 54.8444C43.01 54.5302 43.1233 54.1608 43.125 53.7825V6.21748C43.1253 5.8374 43.0128 5.46577 42.8017 5.14968C42.5906 4.83359 42.2905 4.58725 41.9393 4.44188C41.5881 4.29651 41.2017 4.25864 40.829 4.33307C40.4562 4.4075 40.114 4.59088 39.8456 4.85998C40.3247 4.38062 40.9409 4.06197 41.609 3.9481C42.2771 3.83423 42.9641 3.93076 43.575 4.22435L54.3843 9.42185C54.9421 9.6881 55.4132 10.1066 55.7433 10.6292C56.0734 11.1517 56.2491 11.7569 56.25 12.375V47.625C56.2501 48.2426 56.0758 48.8476 55.747 49.3704C55.4183 49.8932 54.9485 50.3125 54.3918 50.58L43.5825 55.7756Z" fill="#1F9CF0"/>
</svg>
