<svg width="16" height="16" viewBox="0 0 16 16" fill="none" xmlns="http://www.w3.org/2000/svg">
<path d="M12.27 7.9998C12.2679 7.32748 12.1959 6.65721 12.055 5.9998H13.855C13.7623 5.72558 13.6504 5.45825 13.52 5.1998H11.845C11.5301 4.14783 11.0418 3.15585 10.4 2.2648C9.99001 2.09241 9.5625 1.96499 9.12501 1.8848C10.0042 2.82942 10.6678 3.95365 11.07 5.1798H8.37501V1.7998H7.62502V5.1848H4.93002C5.33305 3.95643 5.99843 2.8304 6.88002 1.8848C6.4444 1.96366 6.01859 2.08939 5.61002 2.2598C4.96574 3.14711 4.474 4.13568 4.15502 5.1848H2.47002C2.3373 5.44797 2.22368 5.72034 2.13002 5.9998H3.94502C3.80416 6.65721 3.73211 7.32748 3.73002 7.9998C3.7314 8.73519 3.81526 9.4681 3.98002 10.1848H2.21002C2.31346 10.4651 2.43712 10.7374 2.58002 10.9998H4.19502C4.50112 11.9577 4.95492 12.8619 5.54002 13.6798C5.959 13.8595 6.3967 13.992 6.84502 14.0748C6.02898 13.1847 5.4014 12.1387 5.00002 10.9998H7.63001V14.1698H8.38001V10.9998H11C10.5973 12.1392 9.96796 13.1852 9.15001 14.0748C9.60043 13.9891 10.0398 13.8533 10.46 13.6698C11.0442 12.855 11.498 11.9542 11.805 10.9998H13.405C13.5473 10.7423 13.6709 10.4749 13.775 10.1998H12C12.1726 9.47898 12.2632 8.74097 12.27 7.9998ZM7.62502 10.1848H4.75502C4.403 8.80872 4.38757 7.36811 4.71002 5.9848H7.62502V10.1848ZM11.245 10.1848H8.37501V5.9998H11.29C11.4336 6.65667 11.5041 7.32743 11.5 7.9998C11.5041 8.73579 11.4184 9.46953 11.245 10.1848Z" fill="#0C66FF"/>
<path d="M8 0C6.41775 0 4.87103 0.469192 3.55544 1.34824C2.23985 2.22729 1.21447 3.47672 0.608967 4.93853C0.00346625 6.40034 -0.15496 8.00887 0.153721 9.56072C0.462403 11.1126 1.22433 12.538 2.34315 13.6569C3.46197 14.7757 4.88743 15.5376 6.43928 15.8463C7.99113 16.155 9.59966 15.9965 11.0615 15.391C12.5233 14.7855 13.7727 13.7602 14.6518 12.4446C15.5308 11.129 16 9.58225 16 8C16 5.87827 15.1571 3.84344 13.6569 2.34315C12.1566 0.842855 10.1217 0 8 0ZM8 15C6.61553 15 5.26215 14.5895 4.11101 13.8203C2.95987 13.0511 2.06266 11.9579 1.53285 10.6788C1.00303 9.3997 0.86441 7.99223 1.13451 6.63437C1.4046 5.2765 2.07129 4.02922 3.05026 3.05025C4.02922 2.07128 5.2765 1.4046 6.63437 1.1345C7.99224 0.864406 9.3997 1.00303 10.6788 1.53284C11.9579 2.06266 13.0511 2.95986 13.8203 4.11101C14.5895 5.26215 15 6.61553 15 8C15 9.85651 14.2625 11.637 12.9497 12.9497C11.637 14.2625 9.85652 15 8 15Z" fill="#0C66FF"/>
</svg>
