<svg width="60" height="60" viewBox="0 0 60 60" fill="none" xmlns="http://www.w3.org/2000/svg">
<path d="M8.36252 17.3375C3.97252 23.645 4.51752 31.8525 7.87252 38.555L8.11752 39.03C8.17002 39.13 8.22002 39.235 8.27502 39.3325C8.30502 39.3925 8.34002 39.45 8.37252 39.505C8.53024 39.7958 8.69529 40.0826 8.86752 40.365L9.05002 40.665C9.21994 40.9437 9.39582 41.2188 9.57752 41.49C9.75661 41.7593 9.94081 42.0252 10.13 42.2875L10.22 42.41C10.3775 42.63 10.5425 42.8475 10.71 43.0625L10.895 43.2975L11.35 43.855L11.5225 44.06C11.7275 44.3025 11.94 44.545 12.1525 44.7825L12.165 44.795C12.175 44.805 12.1825 44.81 12.19 44.8225C12.3975 45.05 12.615 45.275 12.83 45.5L13.0375 45.7075L13.55 46.21L13.76 46.41C13.99 46.6275 14.225 46.84 14.4625 47.05L14.4725 47.06L14.595 47.1625C14.8025 47.345 15.0175 47.525 15.2325 47.7L15.495 47.91C15.9544 48.2783 16.4255 48.6318 16.9075 48.97C16.98 49.0225 17.05 49.075 17.125 49.125L17.185 49.1675C17.375 49.3 17.57 49.425 17.7625 49.55C17.845 49.605 17.9275 49.6625 18.015 49.7175C18.7332 50.1758 19.4723 50.6004 20.23 50.99C20.3925 51.075 20.5525 51.16 20.7175 51.2425L20.83 51.2975L21.03 51.395C21.285 51.515 21.5425 51.6375 21.8 51.7525L21.965 51.825C22.2625 51.955 22.5625 52.08 22.865 52.1975L23.085 52.285C23.4016 52.408 23.72 52.5263 24.04 52.64C24.3525 52.75 24.67 52.8525 24.99 52.95L25.22 53.02C25.54 53.1175 25.86 53.2325 26.195 53.295C47.425 57.165 53.59 40.54 53.59 40.54C48.41 47.285 39.22 49.065 30.51 47.085C30.18 47.01 29.8575 46.9075 29.535 46.8125L29.2925 46.74C28.6555 46.5431 28.0259 46.3229 27.405 46.08L27.1725 45.99C26.8725 45.8725 26.575 45.7475 26.2825 45.62L26.105 45.5425C25.8526 45.4293 25.6017 45.3126 25.3525 45.1925L25.135 45.0875C24.94 44.9925 24.7475 44.89 24.555 44.7925C24.4275 44.725 24.295 44.66 24.1675 44.5875C23.9334 44.462 23.7017 44.3319 23.4725 44.1975L23.2375 44.0675C22.9316 43.8873 22.629 43.7015 22.33 43.51L22.085 43.3475C21.8671 43.2073 21.6512 43.064 21.4375 42.9175L21.23 42.77C21.025 42.625 20.82 42.48 20.62 42.33C20.343 42.1223 20.0696 41.9097 19.8 41.6925L19.5525 41.495C19.3225 41.305 19.0925 41.115 18.8675 40.9175C18.5974 40.6823 18.3315 40.4422 18.07 40.1975C18 40.1325 17.9325 40.07 17.8675 40.0025C17.6911 39.8365 17.5178 39.6673 17.3475 39.495L17.145 39.2925C16.9295 39.072 16.7178 38.8478 16.51 38.62L16.48 38.59C16.261 38.3494 16.046 38.1052 15.835 37.8575L15.6675 37.655C15.4508 37.3983 15.2391 37.1374 15.0325 36.8725C14.8498 36.6369 14.6706 36.3985 14.495 36.1575C9.66002 29.5625 7.92502 20.465 11.7875 12.995" fill="#21609B"/>
<path d="M21.985 12.0224C18.81 16.5899 18.985 22.7049 21.46 27.5349C21.875 28.3449 22.3425 29.1324 22.8625 29.8799C23.34 30.5624 23.865 31.3724 24.4975 31.9199C24.7275 32.1724 24.965 32.4174 25.2075 32.6574L25.3975 32.8424C25.6325 33.0724 25.8725 33.2974 26.125 33.5199L26.1525 33.5449L26.16 33.5499C26.4375 33.7924 26.72 34.0249 27.01 34.2524L27.205 34.4024C27.5038 34.6341 27.8089 34.8575 28.12 35.0724C28.2525 35.1649 28.39 35.2524 28.5225 35.3399C28.5875 35.3824 28.65 35.4274 28.7175 35.4674C28.9645 35.6269 29.2154 35.7803 29.47 35.9274C29.66 36.0374 29.8575 36.1449 30.0525 36.2524C30.1175 36.2899 30.19 36.3249 30.2575 36.3599C30.395 36.4299 30.5275 36.5024 30.665 36.5674C30.9661 36.7163 31.2704 36.8588 31.5775 36.9949L31.7625 37.0724C31.995 37.1699 32.2275 37.2649 32.465 37.3549L32.7575 37.4649C32.9725 37.5449 33.185 37.6149 33.3975 37.6874L33.69 37.7799C33.9925 37.8749 34.2975 37.9924 34.615 38.0474C51.005 40.7624 54.785 28.1449 54.785 28.1449C51.375 33.0549 44.77 35.3999 37.7225 33.5699C37.0941 33.4074 36.4742 33.2138 35.865 32.9899L35.57 32.8824C35.2728 32.769 34.9786 32.6481 34.6875 32.5199C34.398 32.3936 34.1112 32.2611 33.8275 32.1224C33.685 32.0524 33.545 31.9774 33.4025 31.9049L33.155 31.7774C32.7023 31.5313 32.2579 31.2704 31.8225 30.9949L31.6225 30.8624C31.1035 30.5245 30.6012 30.1616 30.1175 29.7749C27.0325 27.3399 24.585 24.0099 23.4225 20.2374C22.2025 16.3224 22.4675 11.9299 24.5775 8.36243" fill="#21609B"/>
<path d="M33.4475 8.0525C31.575 10.8075 31.39 14.225 32.6875 17.2675C34.0575 20.4975 36.865 23.0275 40.14 24.23C40.3328 24.3021 40.5279 24.3679 40.725 24.4275C40.9175 24.4875 41.105 24.56 41.3075 24.595C50.3575 26.3425 52.81 19.9525 53.4625 19.01C51.3125 22.1075 47.6975 22.85 43.2675 21.7725C42.4601 21.559 41.6742 21.2711 40.92 20.9125C40.1317 20.5321 39.3823 20.0758 38.6825 19.55C34.72 16.54 32.25 10.7975 34.8425 6.12" fill="#21609B"/>
</svg>
